<svg width="55" height="55" viewBox="0 0 55 55" fill="none" xmlns="http://www.w3.org/2000/svg">
<path d="M-1.20206e-06 27.5C-1.86648e-06 42.7 12.3 55 27.5 55C42.7 55 55 42.7 55 27.5C55 12.3 42.7 -5.3765e-07 27.5 -1.20206e-06C12.3 -1.86648e-06 -5.3765e-07 12.3 -1.20206e-06 27.5Z" fill="#CBAD6C"/>
<circle cx="17.706" cy="30.6764" r="3.60294" stroke="white" stroke-width="1.5"/>
<path d="M10.2155 39.9587C11.3182 36.8866 14.2566 34.6912 17.7059 34.6912C21.1551 34.6912 24.0935 36.8866 25.1963 39.9587C25.3731 40.4511 25.2519 40.9016 24.9302 41.2598C24.5944 41.6337 24.0386 41.897 23.4118 41.897H12C11.3732 41.897 10.8174 41.6337 10.4815 41.2598C10.1598 40.9016 10.0387 40.4511 10.2155 39.9587Z" stroke="white" stroke-width="1.5"/>
<circle cx="38.1178" cy="30.6764" r="3.60294" stroke="white" stroke-width="1.5"/>
<path d="M30.6273 39.9587C31.7301 36.8866 34.6685 34.6912 38.1177 34.6912C41.567 34.6912 44.5054 36.8866 45.6082 39.9587C45.7849 40.4511 45.6638 40.9016 45.3421 41.2598C45.0062 41.6337 44.4504 41.897 43.8236 41.897H32.4119C31.7851 41.897 31.2293 41.6337 30.8934 41.2598C30.5717 40.9016 30.4506 40.4511 30.6273 39.9587Z" stroke="white" stroke-width="1.5"/>
<circle cx="27.706" cy="12.3529" r="3.60294" stroke="white" stroke-width="1.5"/>
<path d="M20.2155 21.6352C21.3182 18.5631 24.2566 16.3677 27.7059 16.3677C31.1551 16.3677 34.0935 18.5631 35.1963 21.6352C35.3731 22.1276 35.2519 22.5781 34.9302 22.9363C34.5944 23.3103 34.0386 23.5736 33.4118 23.5736H22C21.3732 23.5736 20.8174 23.3103 20.4815 22.9363C20.1598 22.5781 20.0387 22.1276 20.2155 21.6352Z" stroke="white" stroke-width="1.5"/>
</svg>
