<svg width="55" height="55" viewBox="0 0 55 55" fill="none" xmlns="http://www.w3.org/2000/svg">
<path d="M27.5 55C42.7 55 55 42.7 55 27.5C55 12.3 42.7 0 27.5 0C12.3 0 0 12.3 0 27.5C0 42.7 12.3 55 27.5 55Z" fill="#CBAD6C"/>
<path d="M45.9756 30.2809C43.6832 29.7178 41.7183 28.4039 41.4376 28.2162L41.344 28.1224C41.0165 27.9347 40.7358 27.5123 40.5487 27.1839C40.7826 26.9962 40.9697 26.8084 41.1569 26.5738C43.3557 24.0868 43.0282 19.9104 42.9814 19.4411C42.7475 14.5609 39.0984 13.3408 37.0399 13.3877C34.9347 13.2939 31.3323 14.5139 31.0516 19.4411C31.0048 19.9104 30.6306 24.0868 32.8762 26.5738C33.9054 27.7 35.2154 28.3101 36.9464 28.3101H37.0867C37.7417 28.3101 38.3031 28.2162 38.9113 28.0285C39.1452 28.4978 39.613 29.1547 40.4083 29.624C41.1569 30.1402 43.1686 31.3602 45.5545 31.9703C46.537 32.2049 47.0048 33.1903 46.9113 35.0204V35.1143C46.9113 35.8651 46.8645 36.7567 46.7709 37.0382C46.5838 37.5075 46.8177 38.0237 47.2388 38.2114C47.3323 38.2583 47.5194 38.2583 47.613 38.2583C47.9873 38.2583 48.3148 38.0237 48.4551 37.6952C48.6423 37.2259 48.7358 36.3343 48.7358 35.1612C48.8762 32.5334 47.8937 30.7502 45.9756 30.2809ZM39.8002 25.3538C39.0984 26.1515 38.2563 26.5269 36.9931 26.5269C35.7768 26.5269 34.8879 26.1515 34.1861 25.3538C32.5487 23.4767 32.7826 19.9573 32.8294 19.6288C32.8294 19.6288 32.8294 19.6758 32.7826 19.7227L32.8294 19.6288V19.5819C33.0165 15.5463 35.9171 15.2648 36.806 15.2648H36.9931C37.1803 15.2648 38.6306 15.2178 39.7534 16.2033C40.5955 16.9541 41.0165 18.0803 41.1101 19.5819H41.2972L41.1101 19.6758C41.1569 20.2858 41.344 23.5706 39.8002 25.3538Z" fill="white"/>
<path d="M32.2641 41.731C32.7787 41.731 33.1997 41.3556 33.2465 40.8394C33.4337 37.4608 32.4044 35.3022 30.3459 34.7391C26.6968 33.566 25.4804 32.1582 25.0594 31.2197L24.919 30.9381L25.2465 30.8912C27.3986 30.7035 29.036 30.0935 30.0184 29.0611C30.2524 28.8265 30.3459 28.4511 30.2524 28.1695C30.1588 27.888 29.9249 27.6064 29.5974 27.5126C29.457 27.4656 29.2231 27.3249 28.9892 27.0902C28.5214 26.5741 28.0068 25.4948 28.1939 23.2423C28.5682 19.4414 27.96 16.7666 26.4629 15.265C25.7144 14.4673 24.6851 14.0449 23.5155 14.0449H23.422L23.3752 13.998C22.6266 13.388 20.8956 12.4025 18.1354 13.4818H18.0418C16.8722 13.9511 13.5038 15.265 13.691 22.0692C13.7377 26.5271 12.5682 27.3249 12.3342 27.4656H12.2407C11.8664 27.5126 11.6325 27.6533 11.4921 27.9349C11.3518 28.2634 11.3518 28.5919 11.5389 28.8734C11.5389 28.8734 11.5389 28.8734 11.5857 28.9203C12.7553 30.2812 14.8606 30.9851 17.5272 30.9851H17.6676C18.1822 30.9851 18.6032 30.5627 18.6032 30.0465C18.6032 29.5304 18.1822 29.108 17.6676 29.108C15.9834 29.155 14.8606 28.8265 14.2056 28.5449L13.9249 28.4042L14.112 28.1695C15.0945 27.0433 15.5155 24.9786 15.4687 21.9754C15.3752 16.532 17.6676 15.5935 18.65 15.2181L18.7904 15.1711C20.8956 14.3734 22.0184 15.2181 22.4395 15.5935C22.6734 15.875 22.9541 16.0158 23.2348 15.9689C24.2173 15.875 24.8255 16.1097 25.2933 16.5789C26.3225 17.6113 26.7436 20.0514 26.4629 23.1016C26.2758 25.354 26.65 27.0902 27.6325 28.2165L27.8664 28.4511L27.5389 28.5919C26.2758 29.108 24.7319 29.155 24.1237 29.155C23.7494 29.155 23.3752 29.4365 23.2348 29.8119V29.9058C23.0945 30.6097 22.6734 34.3168 29.8781 36.5223C31.6559 37.0854 31.422 40.6048 31.3752 40.7456C31.3752 41.2618 31.7494 41.6841 32.2641 41.731Z" fill="white"/>
<path d="M17.153 34.3636C17.5741 33.9413 18.1823 33.1436 17.6676 32.6274C17.6208 32.5805 17.4805 32.4397 17.1998 32.4397C16.9659 32.4397 16.5916 32.5805 16.0302 33.0497C14.6267 34.2229 13.691 34.5513 12.4279 34.9268L11.96 35.0675C9.90155 35.6306 8.87231 37.7892 9.01266 41.1679C9.05945 41.684 9.4805 42.0594 9.94833 42.0594H9.99512C10.5097 42.0125 10.884 41.5902 10.884 41.074C10.884 40.9332 10.6033 37.4138 12.3811 36.8507C15.422 35.9122 16.498 35.0206 17.153 34.3636Z" fill="white"/>
</svg>
