<svg width="55" height="55" viewBox="0 0 55 55" fill="none" xmlns="http://www.w3.org/2000/svg">
<path d="M27.5 55C42.7 55 55 42.7 55 27.5C55 12.3 42.7 0 27.5 0C12.3 0 0 12.3 0 27.5C0 42.7 12.3 55 27.5 55Z" fill="#CBAD6C"/>
<path d="M43.986 22.0062L28.6884 15.1469C28.4716 15.05 28.2371 15 28 15C27.7629 15 27.5284 15.05 27.3116 15.1469L12.014 22.0062C11.7124 22.1404 11.4559 22.3601 11.2759 22.6387C11.0959 22.9173 11 23.2427 11 23.5752C11 23.9078 11.0959 24.2332 11.2759 24.5118C11.4559 24.7904 11.7124 25.0101 12.014 25.1443L15.4134 26.6362L14.3936 26.9963V38.1426C14.3936 38.37 14.4831 38.5881 14.6425 38.7489C14.8019 38.9097 15.0181 39 15.2435 39C15.4689 39 15.685 38.9097 15.8444 38.7489C16.0038 38.5881 16.0933 38.37 16.0933 38.1426V28.0595L27.9915 23.5667L25.9178 22.6407L17.6231 25.7788L12.6939 23.5667L27.9915 16.7074L43.2891 23.5667L27.9915 30.4259L21.7705 27.6479L19.4928 28.5053L27.2946 31.935C27.5114 32.0318 27.7459 32.0819 27.983 32.0819C28.2201 32.0819 28.4546 32.0318 28.6714 31.935L36.4732 28.5053V33.8556C34.1345 35.9817 31.1214 37.1976 27.9745 37.2852C24.8276 37.1976 21.8145 35.9817 19.4758 33.8556V28.5053L17.7761 29.1398V34.5758L18.286 35.0731C20.9459 37.5201 24.3928 38.9148 27.9915 39C31.5777 38.9248 35.0171 37.549 37.68 35.1245L38.1899 34.6272V27.768L43.986 25.1786C44.2876 25.0444 44.5441 24.8247 44.7241 24.5461C44.9041 24.2675 45 23.9421 45 23.6095C45 23.277 44.9041 22.9516 44.7241 22.673C44.5441 22.3944 44.2876 22.1747 43.986 22.0405V22.0062Z" fill="white"/>
</svg>
