<svg width="55" height="55" viewBox="0 0 55 55" fill="none" xmlns="http://www.w3.org/2000/svg">
<path d="M27.5 55C42.7 55 55 42.7 55 27.5C55 12.3 42.7 0 27.5 0C12.3 0 0 12.3 0 27.5C0 42.7 12.3 55 27.5 55Z" fill="#CBAD6C"/>
<path d="M40 22.5668C39.9996 15.6372 34.3923 10 27.5004 10C20.6076 10 15 15.6372 15 22.5668C15 28.9519 19.7622 34.2358 25.9026 35.0271V39.0608H21.8336V42.2727H25.9026V46H29.0974V42.2727H33.1664V39.0608H29.0974V35.0271C35.2378 34.2358 40 28.9519 40 22.5668ZM18.1948 22.5668C18.1948 17.4085 22.3692 13.2118 27.5004 13.2118C32.6308 13.2118 36.8048 17.4085 36.8052 22.5668C36.8052 27.725 32.6308 31.9217 27.5 31.9217C22.3692 31.9217 18.1948 27.7246 18.1948 22.5668Z" fill="white"/>
</svg>
