<svg width="55" height="55" viewBox="0 0 55 55" fill="none" xmlns="http://www.w3.org/2000/svg">
<path d="M27.5 55C42.7 55 55 42.7 55 27.5C55 12.3 42.7 0 27.5 0C12.3 0 0 12.3 0 27.5C0 42.7 12.3 55 27.5 55Z" fill="#CBAD6C"/>
<path d="M25.3206 34.2026L24.9856 28.9773L17.8565 21.4408L17.1388 22.094L17.0909 22.1442C16.8038 22.3955 16.5646 22.7974 16.3732 23.1994V19.6823V19.5818C16.134 17.8233 14.89 16.1151 13.0718 16.1151H12.8804C12.4976 14.5073 11.3493 13 9.67464 13H8.86124C8.8134 13 8.76555 13 8.7177 13H8L8.14354 24.3549L16.134 38.4733H13.5024V44H14.7943V39.8298H26.7081V44H28V38.4733H25.2727L25.3206 34.2026ZM12.9761 17.3712H13.0718C14.1244 17.3712 14.8421 18.5267 15.0813 19.6823V24.4052L14.8421 24.154L12.9761 22.0438V17.3712ZM23.9809 38.4733H17.6172L9.48325 23.9028L9.33971 14.3063H9.62679C10.6794 14.3063 11.3971 15.4619 11.6364 16.6175V22.6467L13.8852 25.1588L20.2967 31.8914L21.7799 30.3339L17.6172 25.9627C16.9952 25.3096 17.2344 24.0535 17.7608 23.2998L23.7416 29.53L24.0287 34.2528L23.9809 38.4733Z" fill="white"/>
<path d="M47 13.7L46.952 13.05L46.3285 13C46.2806 13 46.2326 13 46.1847 13H45.3213C43.6427 13 42.4916 14.5 42.1079 16.1H41.9161C40.1415 16.1 38.8945 17.85 38.6067 19.55V23.15C38.4149 22.75 38.1751 22.4 37.8873 22.1L37.1679 21.5L30.0216 29L29.7338 34.3V38.5H27V44H28.295V39.85H40.2374V44H41.5324V38.5H38.8945L46.952 24.4L47 13.7ZM39.9976 19.75C40.1894 18.65 40.9568 17.45 42.012 17.45H42.1559V22.1L40.2854 24.2L40.0456 24.45L39.9976 19.75ZM45.5612 23.95L37.3117 38.45H30.9808V34.3L31.2686 29.55L37.2158 23.35C37.7914 24.1 37.9353 25.35 37.3597 26L33.187 30.35L34.6739 31.9L41.1007 25.2L43.3549 22.7V16.65C43.5468 15.55 44.3141 14.35 45.3693 14.35H45.6571L45.5612 23.95Z" fill="white"/>
</svg>
