<svg width="55" height="55" viewBox="0 0 55 55" fill="none" xmlns="http://www.w3.org/2000/svg">
<path d="M27.5 55C42.7 55 55 42.7 55 27.5C55 12.3 42.7 0 27.5 0C12.3 0 0 12.3 0 27.5C0 42.7 12.3 55 27.5 55Z" fill="#CBAD6C"/>
<path d="M35.2379 24.5968C35.2041 24.4992 35.1628 24.4053 35.129 24.3076C35.0539 24.1161 35.1929 24.4466 35.1102 24.2588C35.0915 24.2213 35.0764 24.1837 35.0614 24.1462C34.9675 23.9396 34.8661 23.7331 34.7535 23.534C34.5432 23.1547 34.3066 22.8017 34.0512 22.4487C33.9761 22.3473 34.1601 22.5839 34.0324 22.4224C33.9986 22.3811 33.9648 22.3398 33.931 22.2985C33.871 22.2234 33.8071 22.152 33.7433 22.0769C33.5855 21.8967 33.4203 21.7239 33.2476 21.5587C33.0936 21.4085 32.9321 21.262 32.7669 21.1231C32.6843 21.0555 32.6016 20.9879 32.519 20.9203C32.6317 21.0104 32.5415 20.9391 32.519 20.9203C32.4514 20.8715 32.3838 20.8189 32.3125 20.7701C31.9707 20.5297 31.6102 20.3119 31.2384 20.1204C31.0544 20.0265 30.8666 19.9401 30.6789 19.8575C30.8441 19.9289 30.5587 19.8124 30.5136 19.7937C30.3897 19.7448 30.2658 19.7035 30.1381 19.6622C29.695 19.5158 29.2406 19.4031 28.7824 19.328C28.7261 19.3205 28.6697 19.3092 28.6134 19.3017C28.4669 19.2792 28.5796 19.2979 28.6096 19.3017C28.497 19.2867 28.3843 19.2754 28.2717 19.2679C28.0238 19.2454 27.7759 19.2341 27.5281 19.2341C27.3028 19.2341 27.0774 19.2416 26.8521 19.2566C26.7395 19.2641 26.6268 19.2754 26.5141 19.2867C26.4691 19.2904 26.424 19.2979 26.3789 19.3017C26.5554 19.2792 26.2738 19.3167 26.2437 19.3242C25.7969 19.3956 25.3537 19.5045 24.9181 19.6434C24.7115 19.711 24.5088 19.7861 24.306 19.865C24.1219 19.9364 24.3998 19.8237 24.2872 19.8725C24.2384 19.8951 24.1933 19.9138 24.1445 19.9364C24.0318 19.9889 23.9192 20.0415 23.8103 20.0978C23.4385 20.2856 23.0779 20.4997 22.7325 20.74C22.6461 20.8001 22.5597 20.8639 22.4733 20.9278C22.3006 21.0517 22.586 20.8339 22.4245 20.9653C22.3907 20.9916 22.3569 21.0179 22.3231 21.0442C22.1391 21.1944 21.9626 21.3521 21.7898 21.5174C21.6321 21.6676 21.4819 21.8253 21.3354 21.9868C21.2641 22.0657 21.1927 22.1483 21.1214 22.2309C21.0951 22.2647 21.0651 22.2985 21.0388 22.3285C21.0125 22.3623 20.9862 22.3961 20.9599 22.4299C20.9148 22.49 20.9073 22.4975 20.9411 22.4562C21.0087 22.3699 20.881 22.5351 20.8848 22.5313C20.8548 22.5727 20.821 22.6177 20.7909 22.659C20.7346 22.7379 20.682 22.813 20.6294 22.8919C20.5017 23.0834 20.3816 23.2787 20.2689 23.4815C20.1675 23.6617 20.0736 23.8457 19.9835 24.0335C19.9384 24.1274 19.8971 24.2213 19.8558 24.3152C19.9159 24.1762 19.8708 24.2776 19.8596 24.3076C19.8295 24.3828 19.7995 24.4616 19.7694 24.5367C19.6117 24.9611 19.484 25.3967 19.3902 25.8398C19.3676 25.9525 19.3451 26.0614 19.3263 26.1741C19.315 26.2417 19.3038 26.3093 19.2925 26.3769C19.2888 26.4069 19.2775 26.5233 19.2925 26.3806C19.2662 26.6285 19.2399 26.8763 19.2324 27.1242C19.2136 27.5861 19.2287 28.0518 19.2812 28.5137C19.285 28.5512 19.3038 28.7015 19.285 28.5512C19.2925 28.5963 19.2963 28.6414 19.3038 28.6864C19.3226 28.7991 19.3413 28.9118 19.3639 29.0207C19.4127 29.2648 19.469 29.5089 19.5366 29.7492C19.5967 29.967 19.6681 30.1848 19.7469 30.3989C19.7807 30.4965 19.8183 30.5904 19.8558 30.6881C19.9084 30.8195 19.8633 30.7031 19.8521 30.6805C19.8859 30.7557 19.9197 30.8308 19.9535 30.9059C20.13 31.2852 20.329 31.6494 20.5543 31.9987C20.667 32.1752 20.7909 32.3479 20.9148 32.5169C21.035 32.6822 20.8548 32.4456 20.9336 32.5432C20.9674 32.5845 21.0012 32.6258 21.035 32.6672C21.1176 32.7685 21.2003 32.8662 21.2866 32.9601C21.5758 33.283 21.8875 33.5872 22.218 33.8651C22.3006 33.9327 22.3832 34.0003 22.4658 34.0679C22.3306 33.9628 22.4996 34.0904 22.5184 34.1055C22.5522 34.1318 22.586 34.1543 22.6198 34.1806C22.8076 34.3158 23.0028 34.4435 23.1981 34.5636C23.3746 34.6725 23.5586 34.7739 23.7427 34.8678C23.8365 34.9166 23.9267 34.9617 24.0206 35.0068C24.0581 35.0255 24.0957 35.0406 24.1332 35.0593C24.152 35.0668 24.3623 35.157 24.2684 35.1194C24.1633 35.0744 24.3473 35.1532 24.351 35.1532C24.3998 35.172 24.4449 35.1908 24.4937 35.2096C24.5989 35.2471 24.7003 35.2847 24.8054 35.3222C25.0308 35.3973 25.2636 35.4649 25.4927 35.525C25.7142 35.5813 25.9358 35.6264 26.1574 35.664C26.2137 35.6752 26.27 35.6827 26.3264 35.6902C26.3639 35.6978 26.5141 35.7128 26.3639 35.694C26.4991 35.709 26.6343 35.724 26.7695 35.7353C27.2201 35.7691 27.6746 35.7729 28.1252 35.7391C28.2379 35.7316 28.3505 35.7203 28.4632 35.709C28.4857 35.7053 28.7073 35.679 28.5345 35.7015C28.5796 35.694 28.6247 35.6902 28.6697 35.6827C28.9176 35.6452 29.1617 35.5964 29.402 35.5363C29.8452 35.4274 30.2733 35.2809 30.6976 35.1157C30.8141 35.0706 30.5362 35.187 30.7164 35.1082C30.754 35.0931 30.7915 35.0744 30.8291 35.0593C30.923 35.018 31.0169 34.973 31.1107 34.9279C31.3173 34.8265 31.5163 34.7176 31.7116 34.6012C31.8919 34.4923 32.0684 34.3796 32.2411 34.2594C32.3275 34.1994 32.4139 34.1355 32.5002 34.0717C32.6129 33.9891 32.5228 34.0566 32.5002 34.0717C32.5678 34.0191 32.6354 33.9665 32.6993 33.9102C33.0335 33.6323 33.3452 33.3319 33.6381 33.0126C33.7808 32.8549 33.9198 32.6897 34.0512 32.5207C33.9573 32.6371 34.0475 32.5244 34.07 32.4944C34.1 32.4531 34.1338 32.408 34.1639 32.3667C34.239 32.2653 34.3103 32.1602 34.3779 32.055C34.607 31.7058 34.8098 31.3415 34.9863 30.966C35.0314 30.8721 35.0727 30.7782 35.114 30.6843C35.0426 30.8495 35.1215 30.6618 35.1328 30.6355C35.1478 30.5979 35.1628 30.5604 35.1778 30.5191C35.2642 30.29 35.3431 30.0534 35.4107 29.8168C35.4745 29.599 35.5308 29.3774 35.5759 29.1559C35.5984 29.0432 35.621 28.9343 35.6397 28.8216C35.6473 28.7766 35.6548 28.7315 35.6623 28.6864C35.6698 28.6414 35.6773 28.5963 35.6811 28.5512C35.6698 28.6263 35.6698 28.6376 35.6773 28.5813C35.7224 28.1194 35.7524 27.6612 35.7374 27.1918C35.7299 26.9665 35.7149 26.7411 35.6886 26.5158C35.6886 26.5196 35.6623 26.298 35.6773 26.4144C35.6923 26.5271 35.6623 26.3093 35.6623 26.313C35.6397 26.1778 35.6172 26.0464 35.5909 25.9112C35.5196 25.4643 35.3919 25.0287 35.2379 24.5968C35.1027 24.225 35.3881 23.7594 35.7637 23.673C36.188 23.5753 36.5448 23.8007 36.6875 24.1987C37.386 26.1365 37.4498 28.3071 36.8602 30.2787C36.3082 32.1376 35.1891 33.8351 33.6794 35.0518C32.0834 36.3399 30.1569 37.1023 28.1064 37.2412C26.1161 37.3764 24.0694 36.8619 22.3719 35.8104C20.7346 34.7965 19.3826 33.2868 18.6015 31.5218C17.7528 29.599 17.52 27.4734 17.9593 25.4117C18.7893 21.5174 22.1015 18.4117 26.0485 17.8484C28.1102 17.5554 30.2057 17.8934 32.0533 18.8586C33.7583 19.7523 35.2041 21.1869 36.1092 22.8881C36.3345 23.3087 36.5223 23.7481 36.6875 24.1987C36.8227 24.5668 36.5335 25.0362 36.1617 25.1226C35.7374 25.2202 35.3844 24.9949 35.2379 24.5968Z" fill="white"/>
<path d="M36.732 42.3681C33.7803 44.2045 30.2802 45.1283 26.8065 44.9856C23.2877 44.8429 19.8177 43.6374 17.0087 41.5044C14.0306 39.2436 11.8037 36.1041 10.7297 32.5177C9.74199 29.2205 9.75701 25.6266 10.7747 22.3406C11.8863 18.7467 14.1508 15.6109 17.1702 13.3765C19.998 11.281 23.4755 10.113 26.9905 10.0079C30.4455 9.90273 33.9305 10.8491 36.8484 12.7005C40.048 14.7322 42.5153 17.7703 43.871 21.3041C45.1065 24.5337 45.3243 28.1277 44.5432 31.4925C43.7208 35.0376 41.753 38.301 39.004 40.6895C38.2905 41.3053 37.5319 41.8687 36.732 42.3681C36.3978 42.5784 35.8908 42.4507 35.703 42.0977C35.5077 41.7297 35.6167 41.2941 35.9734 41.0688C36.3565 40.8284 36.732 40.573 37.0963 40.3027C37.1413 40.2689 37.1864 40.2351 37.2315 40.2013C37.4042 40.0736 37.1639 40.2576 37.2653 40.175C37.3441 40.1111 37.423 40.051 37.5019 39.9872C37.6934 39.8332 37.8812 39.6717 38.0689 39.5065C38.7487 38.9056 39.3796 38.2485 39.9541 37.5462C40.0255 37.4598 40.0931 37.3734 40.1644 37.2833C40.3034 37.1106 40.0781 37.3997 40.2095 37.2232C40.2358 37.1894 40.2621 37.1519 40.2884 37.1181C40.4273 36.9303 40.5625 36.7425 40.6939 36.551C40.9418 36.1905 41.1746 35.8187 41.3925 35.4394C41.5952 35.0827 41.7868 34.7184 41.967 34.3466C42.0534 34.1626 42.1398 33.9748 42.2224 33.7908C42.2374 33.7532 42.2562 33.7157 42.2712 33.6781C42.1999 33.8471 42.2787 33.6594 42.29 33.6331C42.3275 33.5392 42.3651 33.4453 42.4027 33.3514C42.7031 32.5778 42.9434 31.7817 43.1237 30.9743C43.2101 30.5799 43.2852 30.1856 43.3453 29.7875C43.3528 29.7387 43.3603 29.6899 43.3678 29.6373C43.3866 29.5134 43.3453 29.8251 43.3678 29.6298C43.3791 29.5284 43.3941 29.4308 43.4016 29.3294C43.4241 29.1304 43.4429 28.9313 43.4579 28.7285C43.518 27.9099 43.518 27.0837 43.4579 26.265C43.4429 26.0735 43.4279 25.8857 43.4053 25.6942C43.3941 25.5928 43.3828 25.4951 43.3715 25.3937C43.364 25.3487 43.364 25.2097 43.3715 25.3862C43.3678 25.3261 43.3528 25.2661 43.3453 25.206C43.2852 24.8079 43.2138 24.4136 43.1237 24.0193C42.9434 23.2119 42.7031 22.4157 42.4027 21.6421C42.3651 21.5482 42.3275 21.4543 42.29 21.3604C42.275 21.3229 42.2599 21.2853 42.2449 21.2478C42.3163 21.4168 42.2374 21.229 42.2261 21.2027C42.1435 21.0149 42.0609 20.8309 41.9708 20.6469C41.7943 20.2751 41.6028 19.9109 41.3962 19.5541C41.1746 19.1635 40.9343 18.7842 40.6789 18.4125C40.5663 18.2472 40.4498 18.0857 40.3334 17.9243C40.2921 17.8717 40.2546 17.8191 40.2133 17.7628C40.1269 17.6464 40.1907 17.7327 40.2095 17.7553C40.1269 17.6501 40.0443 17.545 39.9579 17.4398C39.3833 16.7375 38.7524 16.0804 38.0727 15.4795C37.9037 15.3293 37.7347 15.1828 37.5582 15.0439C37.4718 14.9725 37.3854 14.9049 37.2953 14.8336C37.1263 14.6984 37.3667 14.8861 37.2615 14.8073C37.1977 14.7622 37.1376 14.7134 37.0737 14.6683C36.7207 14.4054 36.3527 14.1576 35.9772 13.9248C35.2712 13.4854 34.5313 13.0948 33.769 12.7681C33.7314 12.7531 33.6 12.6967 33.7502 12.7606C33.7127 12.7456 33.6751 12.7305 33.6376 12.7155C33.5437 12.678 33.4498 12.6404 33.3559 12.6029C33.1494 12.524 32.9391 12.4451 32.725 12.3738C32.3419 12.2423 31.9551 12.1259 31.5646 12.0245C31.174 11.9231 30.7797 11.833 30.3854 11.7617C30.1864 11.7241 29.9911 11.6903 29.792 11.6603C29.7507 11.6527 29.7132 11.649 29.6719 11.6415C29.4691 11.6114 29.8371 11.6603 29.6343 11.6377C29.5254 11.6227 29.4165 11.6114 29.3038 11.6002C28.4964 11.5138 27.6815 11.4838 26.8703 11.5138C26.4685 11.5288 26.0704 11.5589 25.6686 11.6002C25.5672 11.6114 25.4696 11.6227 25.3682 11.634C25.1729 11.6565 25.4808 11.6152 25.3607 11.634C25.3119 11.6415 25.263 11.649 25.2105 11.6565C25.0002 11.6865 24.7936 11.7241 24.5871 11.7617C23.7834 11.9119 22.991 12.1222 22.2174 12.3888C22.0259 12.4564 21.8344 12.524 21.6466 12.5991C21.5602 12.6329 21.4776 12.6667 21.3912 12.7005C21.3424 12.7193 21.2973 12.7381 21.2485 12.7568C21.4175 12.6892 21.226 12.7681 21.2034 12.7756C20.8166 12.9408 20.4411 13.1249 20.0693 13.3201C19.3032 13.7257 18.5672 14.1876 17.8724 14.7059C17.8386 14.7322 17.8011 14.7585 17.7673 14.7847C17.5908 14.9162 17.8799 14.6946 17.7072 14.8298C17.6208 14.8974 17.5307 14.9688 17.4443 15.0401C17.2716 15.1828 17.0988 15.3293 16.9298 15.4757C16.5806 15.7837 16.2426 16.1104 15.9234 16.4446C15.6042 16.7789 15.2962 17.1281 15.007 17.4849C14.9432 17.5637 14.8831 17.6426 14.8193 17.7215C14.7367 17.8229 14.9207 17.5825 14.793 17.7553C14.7592 17.8003 14.7254 17.8454 14.6916 17.8905C14.5526 18.0782 14.4175 18.266 14.286 18.4575C13.8091 19.1598 13.3847 19.8958 13.0204 20.6619C12.9378 20.8384 12.8552 21.0149 12.7801 21.1914C12.7688 21.2177 12.69 21.4055 12.7613 21.2365C12.7463 21.2741 12.7313 21.3116 12.7163 21.3492C12.6712 21.4618 12.6261 21.5745 12.5811 21.6909C12.4346 22.0702 12.3069 22.4533 12.1867 22.8401C11.9502 23.6212 11.7737 24.4211 11.6535 25.2285C11.646 25.2773 11.6385 25.3261 11.6309 25.3787C11.6497 25.2097 11.6385 25.3224 11.6347 25.3599C11.6234 25.4613 11.6084 25.559 11.6009 25.6604C11.5784 25.8782 11.5558 26.0998 11.5408 26.3213C11.5145 26.7231 11.4995 27.1212 11.4995 27.523C11.4995 27.9249 11.5145 28.3267 11.5446 28.7248C11.5596 28.9238 11.5784 29.1228 11.6009 29.3256C11.6122 29.427 11.6234 29.5247 11.6347 29.6261C11.6535 29.7688 11.6347 29.6298 11.6309 29.6073C11.6385 29.6786 11.6497 29.7462 11.661 29.8176C11.7849 30.625 11.9652 31.4211 12.2018 32.2023C12.3182 32.5891 12.4534 32.9721 12.5998 33.3514C12.6374 33.4453 12.6749 33.5392 12.7125 33.6331C12.7125 33.6331 12.7914 33.8208 12.7463 33.7119C12.7012 33.603 12.7801 33.7908 12.7801 33.7908C12.8665 33.9861 12.9566 34.1814 13.0467 34.3766C13.4148 35.1427 13.8429 35.8788 14.3236 36.5811C14.4475 36.7651 14.5789 36.9453 14.7104 37.1218C14.7367 37.1556 14.7629 37.1932 14.7892 37.227C14.9207 37.4035 14.6991 37.1143 14.8343 37.2871C14.9057 37.3734 14.9733 37.4636 15.0446 37.55C15.3375 37.9105 15.6455 38.256 15.9684 38.5902C16.2914 38.9244 16.6294 39.2474 16.9786 39.5553C17.1401 39.698 17.3016 39.8332 17.4668 39.9684C17.5457 40.0323 17.6246 40.0961 17.7034 40.1562C17.8762 40.2951 17.587 40.0698 17.7635 40.2013C17.8161 40.2426 17.8687 40.2801 17.925 40.3214C18.6197 40.8359 19.3558 41.2978 20.1219 41.6959C20.4937 41.8912 20.873 42.0677 21.2598 42.2367C21.3875 42.293 21.2748 42.2442 21.2485 42.2329C21.3048 42.2555 21.3612 42.278 21.4175 42.3043C21.5039 42.3381 21.5865 42.3719 21.6729 42.4057C21.8719 42.4808 22.0709 42.5559 22.2737 42.6235C23.0473 42.8864 23.8397 43.0929 24.6434 43.2431C24.8312 43.2769 25.0189 43.3107 25.2067 43.337C25.2668 43.3445 25.3269 43.3558 25.387 43.3633C25.3607 43.3595 25.2255 43.3445 25.3682 43.3595C25.4884 43.3746 25.6085 43.3896 25.7287 43.4009C26.1268 43.4422 26.5286 43.4722 26.9304 43.4835C27.7529 43.5098 28.5753 43.4797 29.394 43.3858C29.4841 43.3746 29.5742 43.3633 29.6644 43.352C29.7883 43.337 29.4803 43.3783 29.6719 43.352C29.7132 43.3445 29.7507 43.3408 29.792 43.3333C30.0099 43.2995 30.2277 43.2619 30.4455 43.2206C30.8398 43.1455 31.2341 43.0554 31.6247 42.954C32.0152 42.8488 32.402 42.7324 32.7851 42.601C32.9766 42.5334 33.1681 42.4658 33.3559 42.3907C33.4498 42.3531 33.5437 42.3155 33.6376 42.278C33.6751 42.263 33.7127 42.2479 33.7502 42.2329C33.5775 42.3043 33.8216 42.2029 33.8516 42.1879C34.5877 41.8649 35.2974 41.4894 35.9772 41.065C36.3114 40.8585 36.8184 40.9824 37.0061 41.3354C37.1977 41.7109 37.0888 42.1466 36.732 42.3681Z" fill="white"/>
<path d="M33.3412 33.3433C33.4951 33.1893 33.6416 33.0316 33.7843 32.8663C33.8557 32.7837 33.9233 32.7048 33.9909 32.6185C34.0059 32.5997 34.1336 32.4345 34.0322 32.5696C34.0697 32.5171 34.1073 32.4683 34.1448 32.4157C34.3964 32.0664 34.6255 31.7022 34.8246 31.3229C34.9147 31.1501 35.0011 30.9736 35.0837 30.7933C35.0949 30.7671 35.1738 30.5755 35.1062 30.7445C35.1212 30.707 35.1362 30.6694 35.1513 30.6319C35.2001 30.5117 35.2414 30.3915 35.2865 30.2713C35.4442 29.8207 35.5644 29.355 35.647 28.8856C35.6658 28.7729 35.6845 28.664 35.6996 28.5514C35.6958 28.5814 35.6845 28.6978 35.6996 28.5476C35.7071 28.4913 35.7108 28.435 35.7183 28.3786C35.7409 28.142 35.7559 27.9054 35.7596 27.6689C35.7634 27.4435 35.7596 27.2182 35.7484 26.9929C35.7409 26.8802 35.7334 26.7676 35.7221 26.6549C35.7183 26.5986 35.7108 26.5422 35.7033 26.4859C35.6996 26.4521 35.6958 26.4183 35.692 26.3845C35.7033 26.4709 35.7033 26.4709 35.692 26.3808C35.6207 25.9188 35.5193 25.4644 35.3841 25.0213C35.3203 24.8223 35.2527 24.6232 35.1776 24.428C35.155 24.3716 35.1325 24.3153 35.11 24.2552C35.1663 24.3979 35.125 24.2928 35.1137 24.2627C35.0611 24.1501 35.0123 24.0374 34.956 23.9247C34.7645 23.5304 34.5429 23.1511 34.295 22.7906C34.2425 22.7117 34.1861 22.6329 34.1298 22.5578C34.0998 22.5165 34.066 22.4714 34.0359 22.4301C34.126 22.5503 34.0397 22.4338 34.0171 22.4076C33.8744 22.231 33.728 22.0621 33.574 21.8931C33.2623 21.5588 32.9281 21.2546 32.5751 20.9692C32.5525 20.9505 32.4624 20.8829 32.5751 20.9692C32.5225 20.9317 32.4737 20.8941 32.4211 20.8566C32.3347 20.7927 32.2483 20.7326 32.162 20.6763C31.9892 20.5599 31.809 20.4472 31.6287 20.3421C31.4485 20.2369 31.2644 20.1393 31.0767 20.0492C30.9828 20.0041 30.8889 19.959 30.795 19.9177C30.7687 19.9065 30.5772 19.8276 30.7462 19.8952C30.6899 19.8727 30.6335 19.8501 30.5734 19.8276C30.1453 19.6624 29.7022 19.5272 29.2553 19.4258C29.045 19.3807 28.8347 19.3431 28.6206 19.3093C28.3991 19.2756 28.7746 19.3244 28.5493 19.3018C28.5042 19.2981 28.4592 19.2906 28.4141 19.2868C28.2789 19.2718 28.1437 19.2643 28.0085 19.253C27.5353 19.2267 27.0584 19.238 26.5852 19.2868C26.5402 19.2906 26.4951 19.2981 26.45 19.3018C26.2247 19.3244 26.604 19.2756 26.3787 19.3093C26.2773 19.3244 26.1759 19.3394 26.0782 19.3582C25.8454 19.3995 25.6126 19.4521 25.3797 19.5121C25.1582 19.5722 24.9404 19.6361 24.7263 19.7112C24.6249 19.745 24.5235 19.7825 24.4259 19.8238C24.377 19.8426 24.332 19.8614 24.2832 19.8802C24.2343 19.9027 24.2456 19.8952 24.3207 19.8651C24.2832 19.8802 24.2456 19.8989 24.208 19.914C23.8175 20.0867 23.4419 20.2895 23.0814 20.5148C22.9124 20.62 22.7472 20.7326 22.5857 20.8528C22.5331 20.8904 22.4843 20.9279 22.4317 20.9655C22.5444 20.8791 22.4543 20.9467 22.4317 20.9655C22.3304 21.0481 22.2327 21.127 22.1351 21.2133C21.7896 21.51 21.4704 21.8367 21.1737 22.1822C21.1098 22.2573 21.0498 22.3287 20.9897 22.4038C20.9671 22.4338 20.8808 22.5465 20.9709 22.4263C20.9371 22.4676 20.9071 22.5127 20.877 22.554C20.7456 22.7343 20.6216 22.9145 20.5052 23.1023C20.2724 23.4741 20.0734 23.8609 19.8969 24.259C19.8405 24.3866 19.8893 24.274 19.9006 24.2514C19.8781 24.3078 19.8555 24.3641 19.833 24.4242C19.7955 24.5256 19.7579 24.6232 19.7204 24.7246C19.6452 24.9387 19.5776 25.1565 19.5213 25.3781C19.465 25.5959 19.4124 25.8174 19.3711 26.0428C19.3486 26.1554 19.3335 26.2643 19.3148 26.377C19.281 26.5986 19.3298 26.223 19.3073 26.4484C19.2997 26.516 19.2922 26.5835 19.2847 26.6511C19.2397 27.1131 19.2322 27.5787 19.2622 28.0406C19.2697 28.1533 19.2772 28.266 19.2885 28.3786C19.2922 28.435 19.2997 28.4913 19.3073 28.5476C19.3298 28.7654 19.2922 28.4537 19.311 28.5852C19.3486 28.8218 19.3861 29.0546 19.4387 29.2874C19.5401 29.7456 19.679 30.1962 19.8555 30.6319C19.8706 30.6694 19.8856 30.707 19.9006 30.7445C19.833 30.5755 19.9119 30.7671 19.9231 30.7933C19.9645 30.8872 20.0095 30.9811 20.0546 31.075C20.1447 31.2628 20.2424 31.4468 20.3475 31.627C20.4527 31.8073 20.5653 31.9876 20.6817 32.1603C20.7418 32.2467 20.8019 32.3331 20.862 32.4194C20.8995 32.472 20.9371 32.5208 20.9747 32.5734C20.8958 32.4683 20.9822 32.5847 21.016 32.6222C21.2939 32.9677 21.5981 33.2907 21.9248 33.5949C22.075 33.7338 22.229 33.869 22.3904 33.9967C22.4092 34.0117 22.5782 34.1394 22.4393 34.038C22.4731 34.0643 22.5069 34.0906 22.5407 34.1131C22.6421 34.1882 22.7472 34.2633 22.8524 34.3309C23.2166 34.575 23.5959 34.7928 23.9902 34.9844C24.0729 35.0257 24.1592 35.0632 24.2418 35.1008C24.2794 35.1158 24.4108 35.1721 24.2606 35.1083C24.3094 35.1271 24.3545 35.1458 24.4033 35.1646C24.6174 35.251 24.839 35.3261 25.0605 35.3937C25.5149 35.5327 25.9844 35.6378 26.4575 35.7016C26.3111 35.6829 26.4312 35.6979 26.4613 35.7016C26.5289 35.7092 26.5965 35.7167 26.6641 35.7242C26.7767 35.7354 26.8894 35.743 27.0021 35.7505C27.2274 35.7617 27.4527 35.7655 27.678 35.7617C27.9034 35.758 28.1287 35.743 28.354 35.7242C28.4216 35.7167 28.4892 35.7092 28.5568 35.7016C28.5868 35.6979 28.7033 35.6829 28.5606 35.7016C28.6957 35.6829 28.8309 35.6603 28.9624 35.6378C29.4205 35.5514 29.8712 35.4313 30.3143 35.2773C30.4157 35.2435 30.5134 35.2059 30.611 35.1646C30.6598 35.1458 30.7049 35.1271 30.7537 35.1083C30.6035 35.1684 30.7349 35.1158 30.7725 35.1008C30.9715 35.0144 31.1668 34.9168 31.3583 34.8154C31.7489 34.6088 32.1207 34.3722 32.4737 34.1094C32.5075 34.0831 32.5413 34.0568 32.5751 34.0343C32.4399 34.1356 32.6089 34.008 32.6239 33.9929C32.7065 33.9253 32.7891 33.8577 32.8717 33.7864C33.0295 33.6437 33.1872 33.4935 33.3412 33.3433C33.6191 33.0654 34.1298 33.0428 34.4039 33.3433C34.6781 33.6437 34.7006 34.1094 34.4039 34.406C33.0145 35.7843 31.2156 36.7569 29.2853 37.0987C27.2236 37.4667 25.1131 37.185 23.2241 36.28C19.6077 34.545 17.3657 30.5417 17.7863 26.5535C18.0004 24.5293 18.804 22.6404 20.1334 21.0969C21.4028 19.6248 23.1378 18.547 25.0192 18.055C26.9983 17.5368 29.1614 17.6457 31.0616 18.4081C32.9206 19.1516 34.5053 20.4209 35.6282 22.0808C37.8814 25.4156 37.7876 30.0498 35.3691 33.2757C35.0724 33.6737 34.757 34.0493 34.4077 34.4023C34.1298 34.6802 33.6191 34.699 33.3449 34.4023C33.0633 34.1018 33.0445 33.6399 33.3412 33.3433Z" fill="white"/>
<path d="M18.1092 41.1884C18.7551 40.5425 19.401 39.8966 20.0507 39.2469C21.0872 38.2104 22.1199 37.1777 23.1564 36.1412C23.393 35.9046 23.6296 35.668 23.8662 35.4314C23.9751 35.8483 24.0878 36.2689 24.1967 36.6857C22.8447 36.1862 21.613 35.4201 20.5915 34.4024C19.57 33.381 18.8039 32.1492 18.3082 30.7973C18.7251 30.9062 19.1457 31.0188 19.5625 31.1277C18.9166 31.7737 18.2706 32.4196 17.621 33.0693C16.5845 34.1058 15.5517 35.1385 14.5153 36.175C14.2787 36.4116 14.0421 36.6482 13.8055 36.8848C13.843 36.5806 13.8843 36.2764 13.9219 35.9759C14.0871 36.2388 14.2561 36.4942 14.4326 36.7458C14.5228 36.8735 14.6129 36.9974 14.7068 37.1213C14.7218 37.1439 14.8908 37.3617 14.7932 37.234C14.8345 37.2866 14.8758 37.3392 14.9171 37.3917C15.3114 37.8874 15.7358 38.3606 16.1827 38.8075C16.6295 39.2544 17.1027 39.6788 17.5984 40.0731C17.651 40.1144 17.7036 40.1557 17.7562 40.197C17.6322 40.0994 17.8463 40.2646 17.8688 40.2834C17.9928 40.3773 18.1204 40.4674 18.2444 40.5575C18.496 40.734 18.7551 40.9068 19.0142 41.0683C19.3484 41.2786 19.5099 41.748 19.2846 42.0972C19.0705 42.4315 18.6124 42.5892 18.2556 42.3676C15.9799 40.9406 14.0458 39.0103 12.6225 36.7345C12.446 36.4529 12.5099 36.0548 12.739 35.8257C13.3849 35.1798 14.0308 34.5339 14.6805 33.8842C15.717 32.8477 16.7497 31.815 17.7862 30.7785C18.0228 30.5419 18.2594 30.3053 18.496 30.0687C18.6837 29.8809 18.9692 29.8058 19.2283 29.8772C19.4987 29.9523 19.6601 30.1513 19.754 30.4029C19.7841 30.4818 19.8104 30.5569 19.8404 30.632C19.8554 30.6696 19.8704 30.7071 19.8855 30.7447C19.8479 30.6621 19.8479 30.6583 19.8817 30.7372C19.9418 30.8686 20.0019 31 20.0657 31.1315C20.2047 31.4131 20.3586 31.6835 20.5276 31.9464C20.6178 32.0891 20.7117 32.2281 20.8093 32.367C20.8468 32.4196 20.8844 32.4684 20.922 32.521C20.9745 32.5886 20.9745 32.5886 20.922 32.521C20.9482 32.5548 20.9745 32.5886 21.0008 32.6224C21.2036 32.874 21.4214 33.1143 21.6505 33.3434C21.8796 33.5725 22.1199 33.7903 22.3715 33.9931C22.4053 34.0194 22.4391 34.0457 22.4729 34.072C22.4053 34.0194 22.4053 34.0194 22.4729 34.072C22.5255 34.1095 22.5743 34.1471 22.6269 34.1846C22.7621 34.2823 22.9048 34.3761 23.0475 34.4663C23.3104 34.6353 23.5845 34.7892 23.8624 34.9282C23.9939 34.992 24.1253 35.0521 24.2567 35.1122C24.3356 35.146 24.3319 35.146 24.2492 35.1085C24.2868 35.1235 24.3243 35.1385 24.3619 35.1535C24.437 35.1836 24.5159 35.2136 24.591 35.2399C24.8426 35.3338 25.0416 35.4953 25.1167 35.7656C25.1881 36.0248 25.113 36.3064 24.9252 36.4979C24.2793 37.1439 23.6334 37.7898 22.9837 38.4395C21.9472 39.476 20.9144 40.5087 19.878 41.5452C19.6414 41.7818 19.4048 42.0184 19.1682 42.255C18.8903 42.5329 18.3796 42.5554 18.1054 42.255C17.835 41.9508 17.8125 41.4851 18.1092 41.1884Z" fill="white"/>
<path d="M35.4329 23.8687C36.0788 23.2227 36.7247 22.5768 37.3744 21.9271C38.4109 20.8906 39.4436 19.8579 40.4801 18.8214C40.7167 18.5848 40.9533 18.3482 41.1899 18.1116C41.1523 18.4158 41.111 18.72 41.0735 19.0205C40.9082 18.7576 40.7392 18.5022 40.5627 18.2506C40.4726 18.1229 40.3825 17.999 40.2886 17.8751C40.2736 17.8525 40.1046 17.6347 40.2022 17.7624C40.1609 17.7098 40.1196 17.6572 40.0783 17.6047C39.684 17.109 39.2596 16.6358 38.8127 16.1889C38.3658 15.742 37.8926 15.3176 37.3969 14.9233C37.3444 14.882 37.2918 14.8407 37.2392 14.7994C37.3631 14.897 37.1491 14.7318 37.1265 14.713C37.0026 14.6191 36.8749 14.529 36.751 14.4389C36.4994 14.2624 36.2403 14.0896 35.9811 13.9281C36.2853 13.8906 36.5895 13.8493 36.89 13.8117C36.244 14.4576 35.5981 15.1036 34.9484 15.7533C33.9119 16.7897 32.8792 17.8225 31.8427 18.859C31.6061 19.0956 31.3695 19.3322 31.1329 19.5687C31.024 19.1519 30.9114 18.7313 30.8025 18.3144C32.1544 18.8139 33.3862 19.58 34.4076 20.5977C35.4291 21.6154 36.1952 22.851 36.6909 24.2029C36.8261 24.5709 36.5369 25.0404 36.1652 25.1267C35.7408 25.2244 35.3878 24.999 35.2413 24.601C35.2113 24.5221 35.185 24.447 35.155 24.3719C35.1399 24.3343 35.1249 24.2968 35.1099 24.2592C35.1475 24.3418 35.1475 24.3456 35.1137 24.2667C35.0536 24.1353 34.9935 24.0039 34.9296 23.8724C34.7907 23.5908 34.6367 23.3204 34.4677 23.0575C34.3776 22.9148 34.2837 22.7758 34.1861 22.6369C34.1485 22.5843 34.111 22.5355 34.0734 22.4829C34.0208 22.4153 34.0208 22.4153 34.0734 22.4829C34.0471 22.4491 34.0208 22.4153 33.9945 22.3815C33.7918 22.1299 33.5739 21.8896 33.3449 21.6605C33.1158 21.4314 32.8754 21.2136 32.6238 21.0108C32.59 20.9845 32.5562 20.9582 32.5224 20.9319C32.59 20.9845 32.59 20.9845 32.5224 20.9319C32.4699 20.8944 32.421 20.8568 32.3685 20.8193C32.2333 20.7216 32.0906 20.6278 31.9479 20.5376C31.685 20.3686 31.4108 20.2147 31.1329 20.0757C31.0015 20.0119 30.8701 19.9518 30.7386 19.8917C30.6598 19.8579 30.6635 19.8579 30.7461 19.8955C30.7086 19.8804 30.671 19.8654 30.6335 19.8504C30.5584 19.8204 30.4795 19.7903 30.4044 19.764C30.1528 19.6701 29.9537 19.5087 29.8786 19.2383C29.8073 18.9791 29.8824 18.6975 30.0702 18.506C30.7161 17.86 31.362 17.2141 32.0117 16.5644C33.0482 15.5279 34.0809 14.4952 35.1174 13.4587C35.354 13.2221 35.5906 12.9855 35.8272 12.7489C36.0563 12.5199 36.4581 12.456 36.736 12.6325C39.0118 14.0596 40.9458 15.9898 42.3691 18.2656C42.5456 18.5473 42.4817 18.9453 42.2527 19.1744C41.6067 19.8204 40.9608 20.4663 40.3111 21.116C39.2746 22.1525 38.2419 23.1852 37.2054 24.2217C36.9688 24.4583 36.7322 24.6949 36.4956 24.9314C36.2177 25.2093 35.707 25.2319 35.4329 24.9314C35.155 24.631 35.1362 24.1653 35.4329 23.8687Z" fill="white"/>
<path d="M20.5954 20.5977C21.6206 19.58 22.8449 18.8139 24.2006 18.3145C24.0917 18.7313 23.979 19.1519 23.8701 19.5688C23.2242 18.9228 22.5782 18.2769 21.9286 17.6272C20.8921 16.5907 19.8593 15.558 18.8228 14.5215C18.5863 14.2849 18.3497 14.0483 18.1131 13.8117C18.4173 13.8493 18.7214 13.8906 19.0219 13.9281C18.759 14.0934 18.5036 14.2624 18.252 14.4389C18.1243 14.529 18.0004 14.6191 17.8765 14.713C17.854 14.728 17.6361 14.897 17.7638 14.7994C17.7112 14.8407 17.6587 14.882 17.6061 14.9233C17.1104 15.3176 16.6372 15.742 16.1903 16.1889C15.7434 16.6358 15.3191 17.109 14.9247 17.6047C14.8834 17.6573 14.8421 17.7098 14.8008 17.7624C14.8985 17.6385 14.7332 17.8525 14.7144 17.8751C14.6206 17.999 14.5304 18.1267 14.4403 18.2506C14.2638 18.5022 14.091 18.7613 13.9296 19.0205C13.892 18.7163 13.8507 18.4121 13.8131 18.1117C14.4591 18.7576 15.105 19.4035 15.7547 20.0532C16.7912 21.0897 17.8239 22.1224 18.8604 23.1589C19.097 23.3955 19.3336 23.6321 19.5702 23.8687C19.1533 23.9776 18.7327 24.0902 18.3159 24.1992C18.8078 22.8472 19.5739 21.623 20.5954 20.5977C20.8733 20.3198 21.384 20.3011 21.6582 20.5977C21.9361 20.8982 21.9548 21.3638 21.6582 21.6605C21.4291 21.8896 21.2113 22.1299 21.0085 22.3815C20.9822 22.4153 20.9559 22.4491 20.9296 22.4829C20.9822 22.4153 20.9822 22.4153 20.9296 22.4829C20.8808 22.5505 20.8282 22.6181 20.7794 22.6895C20.693 22.8097 20.6104 22.9336 20.5315 23.0575C20.3626 23.3204 20.2086 23.5945 20.0696 23.8724C20.0058 24.0039 19.9457 24.1353 19.8856 24.2668C19.8518 24.3456 19.8518 24.3419 19.8894 24.2592C19.8744 24.2968 19.8593 24.3344 19.8443 24.3719C19.8143 24.447 19.7842 24.5259 19.7579 24.601C19.6641 24.8526 19.5026 25.0516 19.2322 25.1267C18.9731 25.1981 18.6914 25.123 18.4999 24.9352C17.854 24.2893 17.208 23.6434 16.5583 22.9937C15.5219 21.9572 14.4891 20.9245 13.4526 19.888C13.216 19.6514 12.9794 19.4148 12.7429 19.1782C12.5138 18.9491 12.4499 18.5473 12.6264 18.2694C14.0535 15.9936 15.9838 14.0596 18.2595 12.6363C18.5412 12.4598 18.9393 12.5236 19.1683 12.7527C19.8143 13.3986 20.4602 14.0446 21.1099 14.6943C22.1464 15.7307 23.1791 16.7635 24.2156 17.8C24.4522 18.0366 24.6888 18.2731 24.9254 18.5097C25.1131 18.6975 25.1882 18.9829 25.1169 19.242C25.0418 19.5124 24.8427 19.6739 24.5911 19.7678C24.5123 19.7978 24.4372 19.8241 24.3621 19.8542C24.3245 19.8692 24.2869 19.8842 24.2494 19.8992C24.332 19.8617 24.3358 19.8617 24.2569 19.8955C24.1255 19.9556 23.994 20.0156 23.8626 20.0795C23.5809 20.2184 23.3105 20.3724 23.0477 20.5414C22.9237 20.6203 22.7998 20.7029 22.6796 20.7893C22.612 20.8381 22.5407 20.8907 22.4731 20.9395C22.4055 20.992 22.4055 20.992 22.4731 20.9395C22.4393 20.9658 22.4055 20.992 22.3717 21.0183C22.1201 21.2211 21.8797 21.4389 21.6507 21.668C21.3728 21.9459 20.862 21.9685 20.5879 21.668C20.3175 21.3601 20.295 20.8907 20.5954 20.5977Z" fill="white"/>
<path d="M38.8091 38.8113C39.2559 38.3644 39.6803 37.8913 40.0746 37.3956C40.1159 37.343 40.1572 37.2904 40.1985 37.2378C40.1009 37.3655 40.2661 37.1477 40.2849 37.1252C40.3788 37.0012 40.4689 36.8736 40.5591 36.7496C40.7356 36.498 40.9083 36.2389 41.0698 35.9798C41.1074 36.284 41.1487 36.5881 41.1862 36.8886C40.5403 36.2426 39.8944 35.5967 39.2447 34.947C38.2082 33.9105 37.1755 32.8778 36.139 31.8413C35.9024 31.6047 35.6658 31.3681 35.4292 31.1316C35.846 31.0227 36.2667 30.91 36.6835 30.8011C36.184 32.153 35.4179 33.3848 34.4002 34.4063C33.3788 35.4277 32.147 36.1938 30.795 36.6895C30.9039 36.2727 31.0166 35.8521 31.1255 35.4352C31.7714 36.0812 32.4174 36.7271 33.0671 37.3768C34.1035 38.4133 35.1363 39.446 36.1728 40.4825C36.4094 40.7191 36.6459 40.9557 36.8825 41.1923C36.5783 41.1547 36.2742 41.1134 35.9737 41.0758C36.2366 40.9106 36.492 40.7416 36.7436 40.5651C36.8713 40.475 36.9952 40.3848 37.1191 40.291C37.1379 40.2759 37.3144 40.1407 37.2543 40.1896C37.1942 40.2346 37.3707 40.0994 37.3895 40.0844C37.889 39.6826 38.3622 39.2582 38.8091 38.8113C39.087 38.5334 39.5977 38.5109 39.8718 38.8113C40.146 39.1118 40.1685 39.5774 39.8718 39.8741C38.9217 40.8167 37.8664 41.6579 36.7323 42.3677C36.4507 42.5442 36.0526 42.4804 35.8235 42.2513C35.1776 41.6054 34.5317 40.9594 33.882 40.3097C32.8455 39.2733 31.8128 38.2405 30.7763 37.204C30.5397 36.9674 30.3031 36.7309 30.0665 36.4943C29.8787 36.3065 29.8036 36.0211 29.875 35.762C29.9501 35.4916 30.1491 35.3301 30.4007 35.2362C30.4796 35.2062 30.5547 35.1799 30.6298 35.1498C30.6674 35.1348 30.7049 35.1198 30.7425 35.1048C30.6598 35.1423 30.6561 35.1423 30.735 35.1085C30.8664 35.0484 30.9978 34.9883 31.1293 34.9245C31.4109 34.7856 31.6813 34.6316 31.9442 34.4626C32.0869 34.3725 32.2258 34.2786 32.3648 34.1809C32.4174 34.1434 32.4662 34.1058 32.5188 34.0683C32.5864 34.0157 32.5864 34.0157 32.5188 34.0683C32.5526 34.042 32.5864 34.0157 32.6202 33.9894C32.8718 33.7866 33.1121 33.5688 33.3412 33.3397C33.5703 33.1107 33.7881 32.8703 33.9909 32.6187C34.0172 32.5849 34.0435 32.5511 34.0697 32.5173C34.0172 32.5849 34.0172 32.5849 34.0697 32.5173C34.1073 32.4647 34.1449 32.4159 34.1824 32.3633C34.28 32.2281 34.3739 32.0854 34.4641 31.9427C34.6331 31.6798 34.787 31.4057 34.926 31.1278C34.9898 30.9964 35.0499 30.8649 35.11 30.7335C35.1438 30.6546 35.1438 30.6584 35.1062 30.741C35.1213 30.7034 35.1363 30.6659 35.1513 30.6283C35.1813 30.5532 35.2114 30.4744 35.2377 30.3993C35.3316 30.1476 35.493 29.9486 35.7634 29.8735C36.0226 29.8021 36.3042 29.8773 36.4957 30.065C37.1417 30.711 37.7876 31.3569 38.4373 32.0066C39.4738 33.0431 40.5065 34.0758 41.543 35.1123C41.7796 35.3489 42.0162 35.5855 42.2528 35.822C42.4818 36.0511 42.5457 36.453 42.3692 36.7309C41.6594 37.865 40.8182 38.9202 39.8756 39.8704C39.5977 40.1483 39.087 40.167 38.8128 39.8704C38.5349 39.5737 38.5124 39.108 38.8091 38.8113Z" fill="white"/>
</svg>
