<svg width="72" height="72" viewBox="0 0 72 72" fill="none" xmlns="http://www.w3.org/2000/svg">
<path d="M72 36C72 55.8823 55.8823 72 36 72C16.1177 72 0 55.8823 0 36C0 16.1177 16.1177 0 36 0C55.8823 0 72 16.1177 72 36ZM8.7414 36C8.7414 51.0545 20.9455 63.2586 36 63.2586C51.0545 63.2586 63.2586 51.0545 63.2586 36C63.2586 20.9455 51.0545 8.7414 36 8.7414C20.9455 8.7414 8.7414 20.9455 8.7414 36Z" fill="#DCDCDC"/>
<path d="M36 72C30.0798 72 24.2509 70.5399 19.0297 67.7492C13.8085 64.9584 9.3562 60.923 6.06709 56.0005C2.77798 51.078 0.753631 45.4203 0.173349 39.5286C-0.406934 33.6369 0.474764 27.693 2.74034 22.2234C5.00592 16.7538 8.58545 11.9274 13.1619 8.17161C17.7383 4.41586 23.1703 1.8467 28.9768 0.691726C34.7833 -0.463252 40.785 -0.168403 46.4503 1.55016C52.1156 3.26871 57.2696 6.35793 61.4559 10.5442L55.3078 16.6922C52.1326 13.517 48.2234 11.1739 43.9263 9.87042C39.6293 8.56692 35.0771 8.34328 30.673 9.21931C26.2689 10.0953 22.1488 12.044 18.6777 14.8927C15.2066 17.7413 12.4916 21.4021 10.7732 25.5507C9.05475 29.6993 8.386 34.2076 8.82613 38.6764C9.26627 43.1452 10.8017 47.4364 13.2964 51.17C15.7912 54.9037 19.1682 57.9644 23.1283 60.0812C27.0885 62.1979 31.5096 63.3053 36 63.3053L36 72Z" fill="#004069"/>
<path d="M22.9702 44.6416C22.9702 45.1292 22.8858 45.5576 22.7172 45.9268C22.5486 46.2936 22.3071 46.5762 21.9926 46.7744C21.6804 46.9704 21.3204 47.0684 20.9125 47.0684C20.5092 47.0684 20.1492 46.9704 19.8325 46.7744C19.518 46.5762 19.2742 46.2948 19.101 45.9302C18.9301 45.5656 18.8435 45.1452 18.8412 44.6689V44.3887C18.8412 43.9033 18.9267 43.4749 19.0976 43.1035C19.2708 42.7321 19.5134 42.4484 19.8256 42.2524C20.1401 42.0542 20.5001 41.9551 20.9057 41.9551C21.3113 41.9551 21.6702 42.0531 21.9824 42.249C22.2968 42.4427 22.5395 42.723 22.7104 43.0898C22.8813 43.4544 22.9679 43.8794 22.9702 44.3647V44.6416ZM22.1054 44.3818C22.1054 43.8304 22.0006 43.4077 21.791 43.1138C21.5836 42.8198 21.2885 42.6729 20.9057 42.6729C20.532 42.6729 20.2392 42.8198 20.0273 43.1138C19.8176 43.4054 19.7106 43.819 19.706 44.3545V44.6416C19.706 45.1885 19.812 45.6112 20.0239 45.9097C20.2381 46.2082 20.5343 46.3574 20.9125 46.3574C21.2954 46.3574 21.5893 46.2116 21.7944 45.9199C22.0017 45.6283 22.1054 45.2021 22.1054 44.6416V44.3818ZM26.5592 44.8911H24.5562V47H23.6915V42.0234H26.8531V42.7207H24.5562V44.2007H26.5592V44.8911ZM32.3939 42.7207H30.8421V47H29.9842V42.7207H28.4462V42.0234H32.3939V42.7207ZM35.2856 45.8413H33.3579L32.9546 47H32.0557L33.9355 42.0234H34.7114L36.5947 47H35.6924L35.2856 45.8413ZM33.6006 45.144H35.043L34.3218 43.0796L33.6006 45.144ZM38.8507 45.0825H37.8869V47H37.0221V42.0234H38.7721C39.3463 42.0234 39.7895 42.1522 40.1017 42.4097C40.4139 42.6672 40.57 43.0397 40.57 43.5273C40.57 43.86 40.4891 44.1392 40.3273 44.3647C40.1678 44.5881 39.9445 44.7601 39.6574 44.8809L40.775 46.9556V47H39.8488L38.8507 45.0825ZM37.8869 44.3887H38.7755C39.0672 44.3887 39.2951 44.3158 39.4591 44.1699C39.6232 44.0218 39.7052 43.8201 39.7052 43.5649C39.7052 43.2983 39.6289 43.0921 39.4762 42.9463C39.3258 42.8005 39.1002 42.7253 38.7995 42.7207H37.8869V44.3887ZM45.0647 46.354C44.8847 46.5887 44.6352 46.7664 44.3162 46.8872C43.9972 47.008 43.6349 47.0684 43.2293 47.0684C42.8123 47.0684 42.4431 46.9738 42.1219 46.7847C41.8006 46.5955 41.5522 46.3255 41.3767 45.9746C41.2036 45.6214 41.1136 45.2101 41.1067 44.7407V44.3511C41.1067 43.5991 41.2867 43.0124 41.6468 42.5908C42.0068 42.167 42.5092 41.9551 43.1541 41.9551C43.7078 41.9551 44.1476 42.0918 44.4734 42.3652C44.7993 42.6387 44.9952 43.0329 45.0613 43.5479H44.2137C44.1179 42.9486 43.7705 42.6489 43.1712 42.6489C42.7838 42.6489 42.4887 42.7891 42.2859 43.0693C42.0854 43.3473 41.9817 43.7563 41.9749 44.2964V44.6792C41.9749 45.217 42.0877 45.6351 42.3133 45.9336C42.5411 46.2298 42.8567 46.3779 43.26 46.3779C43.7021 46.3779 44.0165 46.2777 44.2034 46.0771V45.103H43.178V44.4468H45.0647V46.354ZM48.7836 44.7783H46.7397V46.3096H49.1288V47H45.8749V42.0234H49.1049V42.7207H46.7397V44.0947H48.7836V44.7783ZM53.357 42.7207H51.8052V47H50.9473V42.7207H49.4092V42.0234H53.357V42.7207Z" fill="#2E2E2E"/>
<path d="M28.6348 25.3896L23.5195 37H21.2783L26.3848 25.917H19.7666V24.2031H28.6348V25.3896ZM38.9531 37H30.3486V35.5322L34.6113 30.8828C35.2266 30.1973 35.6631 29.626 35.9209 29.1689C36.1846 28.7061 36.3164 28.2432 36.3164 27.7803C36.3164 27.1709 36.1436 26.6787 35.7979 26.3037C35.458 25.9287 34.998 25.7412 34.418 25.7412C33.7266 25.7412 33.1904 25.9521 32.8096 26.374C32.4287 26.7959 32.2383 27.373 32.2383 28.1055H30.1025C30.1025 27.3262 30.2783 26.626 30.6299 26.0049C30.9873 25.3779 31.4941 24.8916 32.1504 24.5459C32.8125 24.2002 33.5742 24.0273 34.4355 24.0273C35.6777 24.0273 36.6562 24.3408 37.3711 24.9678C38.0918 25.5889 38.4521 26.4502 38.4521 27.5518C38.4521 28.1904 38.2705 28.8613 37.9072 29.5645C37.5498 30.2617 36.9609 31.0557 36.1406 31.9463L33.0117 35.2949H38.9531V37ZM40.4912 26.6641C40.4912 25.8906 40.7402 25.2578 41.2383 24.7656C41.7363 24.2676 42.3896 24.0186 43.1982 24.0186C44.0186 24.0186 44.6748 24.2676 45.167 24.7656C45.665 25.2578 45.9141 25.9053 45.9141 26.708V27.3408C45.9141 28.1084 45.665 28.7383 45.167 29.2305C44.6748 29.7227 44.0244 29.9688 43.2158 29.9688C42.4248 29.9688 41.7715 29.7285 41.2559 29.248C40.7461 28.7617 40.4912 28.1084 40.4912 27.2881V26.6641ZM41.9854 27.3408C41.9854 27.7451 42.0967 28.0732 42.3193 28.3252C42.5479 28.5713 42.8467 28.6943 43.2158 28.6943C43.5791 28.6943 43.8721 28.5713 44.0947 28.3252C44.3174 28.0732 44.4287 27.7334 44.4287 27.3057V26.6641C44.4287 26.2598 44.3145 25.9316 44.0859 25.6797C43.8633 25.4277 43.5674 25.3018 43.1982 25.3018C42.8291 25.3018 42.5332 25.4307 42.3105 25.6885C42.0938 25.9404 41.9854 26.2744 41.9854 26.6904V27.3408ZM46.6436 33.8623C46.6436 33.0771 46.8984 32.4414 47.4082 31.9551C47.918 31.4688 48.5684 31.2256 49.3594 31.2256C50.1562 31.2256 50.8066 31.4688 51.3105 31.9551C51.8203 32.4414 52.0752 33.0977 52.0752 33.9238V34.5479C52.0752 35.3096 51.8291 35.9395 51.3369 36.4375C50.8506 36.9297 50.1973 37.1758 49.377 37.1758C48.5566 37.1758 47.8945 36.9326 47.3906 36.4463C46.8926 35.9541 46.6436 35.3066 46.6436 34.5039V33.8623ZM48.1377 34.5479C48.1377 34.9463 48.252 35.2744 48.4805 35.5322C48.7148 35.7842 49.0137 35.9102 49.377 35.9102C49.752 35.9102 50.0449 35.79 50.2559 35.5498C50.4727 35.3037 50.5811 34.9609 50.5811 34.5215V33.8623C50.5811 33.4521 50.4668 33.124 50.2383 32.8779C50.0098 32.6318 49.7168 32.5088 49.3594 32.5088C48.9961 32.5088 48.7002 32.6318 48.4717 32.8779C48.249 33.124 48.1377 33.4639 48.1377 33.8975V34.5479ZM43.6553 36.042L42.5566 35.4092L48.8057 25.4072L49.9043 26.04L43.6553 36.042Z" fill="#2E2E2E"/>
</svg>
