<svg width="55" height="55" viewBox="0 0 55 55" fill="none" xmlns="http://www.w3.org/2000/svg">
<path d="M27.5 55C42.7 55 55 42.7 55 27.5C55 12.3 42.7 0 27.5 0C12.3 0 0 12.3 0 27.5C0 42.7 12.3 55 27.5 55Z" fill="#25784B"/>
<path fill-rule="evenodd" clip-rule="evenodd" d="M29.5 12H26.5V16.5H22V19.5H26.5V24H29.5V19.5H34V16.5H29.5V12Z" fill="white"/>
<path d="M45.2405 34.6705L45.7794 34.304L45.5109 33.739C45.487 33.6975 45.463 33.6559 45.439 33.6144L45.0074 32.8667C44.168 31.413 42.2934 31.1661 40.716 31.6338L40.62 31.4677C39.7327 29.9309 37.5937 29.7259 35.9776 30.3267L32.8599 32.1267C33.1104 31.7606 33.2936 31.3779 33.4095 30.9787L33.5694 30.0556L23.5011 27.6168L18.7672 30.0176L15.1299 32.1176L13.763 29.75L8.99989 32.5L9.64737 33.6215L13.2414 31.5465L19.2126 41.8889L15.6186 43.9639L16.2661 45.0854L21.0292 42.3354L19.7103 40.0509L35.95 39.979L45.2405 34.6705ZM36.4998 31.6313C37.5484 31.2474 38.9713 31.312 39.4989 32.2258L39.5708 32.3504L35.5438 34.6754L32.7899 34.1055L32.4535 34.0228L36.4998 31.6313ZM35.6443 38.5494L18.9622 38.6552L15.7967 33.1725L19.3907 31.0975L23.6483 28.9717L31.9912 31.0222C31.6295 31.8956 30.6189 32.6452 29.7682 32.4718L23.9147 31.0331L23.3157 33.0958L32.3315 35.3116L35.6237 36.0138L40.8631 32.9888C41.9117 32.6049 43.3346 32.6695 43.8622 33.5833L44.0061 33.8325L35.6443 38.5494Z" fill="white"/>
</svg>
