<svg width="72" height="72" viewBox="0 0 72 72" fill="none" xmlns="http://www.w3.org/2000/svg">
<path d="M72 36C72 55.8823 55.8823 72 36 72C16.1177 72 0 55.8823 0 36C0 16.1177 16.1177 0 36 0C55.8823 0 72 16.1177 72 36ZM8.7414 36C8.7414 51.0545 20.9455 63.2586 36 63.2586C51.0545 63.2586 63.2586 51.0545 63.2586 36C63.2586 20.9455 51.0545 8.7414 36 8.7414C20.9455 8.7414 8.7414 20.9455 8.7414 36Z" fill="#DCDCDC"/>
<path d="M36 72C30.0798 72 24.2509 70.5399 19.0297 67.7492C13.8085 64.9584 9.3562 60.923 6.06709 56.0005C2.77798 51.078 0.753631 45.4203 0.173349 39.5286C-0.406934 33.6369 0.474764 27.693 2.74034 22.2234C5.00592 16.7538 8.58545 11.9274 13.1619 8.17161C17.7383 4.41586 23.1703 1.8467 28.9768 0.691726C34.7833 -0.463252 40.785 -0.168403 46.4503 1.55016C52.1156 3.26871 57.2696 6.35793 61.4559 10.5442L55.3078 16.6922C52.1326 13.517 48.2234 11.1739 43.9263 9.87042C39.6293 8.56692 35.0771 8.34328 30.673 9.21931C26.2689 10.0953 22.1488 12.044 18.6777 14.8927C15.2066 17.7413 12.4916 21.4021 10.7732 25.5507C9.05475 29.6993 8.386 34.2076 8.82613 38.6764C9.26627 43.1452 10.8017 47.4364 13.2964 51.17C15.7912 54.9037 19.1682 57.9644 23.1283 60.0812C27.0885 62.1979 31.5096 63.3053 36 63.3053L36 72Z" fill="#F5821F"/>
<path d="M28.6348 30.3896L23.5195 42H21.2783L26.3848 30.917H19.7666V29.2031H28.6348V30.3896ZM38.9531 42H30.3486V40.5322L34.6113 35.8828C35.2266 35.1973 35.6631 34.626 35.9209 34.1689C36.1846 33.7061 36.3164 33.2432 36.3164 32.7803C36.3164 32.1709 36.1436 31.6787 35.7979 31.3037C35.458 30.9287 34.998 30.7412 34.418 30.7412C33.7266 30.7412 33.1904 30.9521 32.8096 31.374C32.4287 31.7959 32.2383 32.373 32.2383 33.1055H30.1025C30.1025 32.3262 30.2783 31.626 30.6299 31.0049C30.9873 30.3779 31.4941 29.8916 32.1504 29.5459C32.8125 29.2002 33.5742 29.0273 34.4355 29.0273C35.6777 29.0273 36.6562 29.3408 37.3711 29.9678C38.0918 30.5889 38.4521 31.4502 38.4521 32.5518C38.4521 33.1904 38.2705 33.8613 37.9072 34.5645C37.5498 35.2617 36.9609 36.0557 36.1406 36.9463L33.0117 40.2949H38.9531V42ZM40.4912 31.6641C40.4912 30.8906 40.7402 30.2578 41.2383 29.7656C41.7363 29.2676 42.3896 29.0186 43.1982 29.0186C44.0186 29.0186 44.6748 29.2676 45.167 29.7656C45.665 30.2578 45.9141 30.9053 45.9141 31.708V32.3408C45.9141 33.1084 45.665 33.7383 45.167 34.2305C44.6748 34.7227 44.0244 34.9688 43.2158 34.9688C42.4248 34.9688 41.7715 34.7285 41.2559 34.248C40.7461 33.7617 40.4912 33.1084 40.4912 32.2881V31.6641ZM41.9854 32.3408C41.9854 32.7451 42.0967 33.0732 42.3193 33.3252C42.5479 33.5713 42.8467 33.6943 43.2158 33.6943C43.5791 33.6943 43.8721 33.5713 44.0947 33.3252C44.3174 33.0732 44.4287 32.7334 44.4287 32.3057V31.6641C44.4287 31.2598 44.3145 30.9316 44.0859 30.6797C43.8633 30.4277 43.5674 30.3018 43.1982 30.3018C42.8291 30.3018 42.5332 30.4307 42.3105 30.6885C42.0938 30.9404 41.9854 31.2744 41.9854 31.6904V32.3408ZM46.6436 38.8623C46.6436 38.0771 46.8984 37.4414 47.4082 36.9551C47.918 36.4688 48.5684 36.2256 49.3594 36.2256C50.1562 36.2256 50.8066 36.4688 51.3105 36.9551C51.8203 37.4414 52.0752 38.0977 52.0752 38.9238V39.5479C52.0752 40.3096 51.8291 40.9395 51.3369 41.4375C50.8506 41.9297 50.1973 42.1758 49.377 42.1758C48.5566 42.1758 47.8945 41.9326 47.3906 41.4463C46.8926 40.9541 46.6436 40.3066 46.6436 39.5039V38.8623ZM48.1377 39.5479C48.1377 39.9463 48.252 40.2744 48.4805 40.5322C48.7148 40.7842 49.0137 40.9102 49.377 40.9102C49.752 40.9102 50.0449 40.79 50.2559 40.5498C50.4727 40.3037 50.5811 39.9609 50.5811 39.5215V38.8623C50.5811 38.4521 50.4668 38.124 50.2383 37.8779C50.0098 37.6318 49.7168 37.5088 49.3594 37.5088C48.9961 37.5088 48.7002 37.6318 48.4717 37.8779C48.249 38.124 48.1377 38.4639 48.1377 38.8975V39.5479ZM43.6553 41.042L42.5566 40.4092L48.8057 30.4072L49.9043 31.04L43.6553 41.042Z" fill="#2E2E2E"/>
</svg>
