<svg width="55" height="55" viewBox="0 0 55 55" fill="none" xmlns="http://www.w3.org/2000/svg">
<path d="M27.5 55C42.7 55 55 42.7 55 27.5C55 12.3 42.7 0 27.5 0C12.3 0 0 12.3 0 27.5C0 42.7 12.3 55 27.5 55Z" fill="#25784B"/>
<path d="M12.2 35.3999H30.7V37.1999H12.2V35.3999ZM13.4 32.3999H32V34.1999H13.4V32.3999ZM14.7 29.4999H33.2V31.2999H14.7V29.4999ZM32 43.0999H13.4V41.2999H32V43.0999ZM32 40.1999H13.4V38.3999H32V40.1999ZM14 18.7999C14 13.8999 18.1 9.89989 23.3 9.89989C28.4 9.89989 32.6 13.8999 32.6 18.7999C32.6 23.6999 28.5 27.6999 23.3 27.6999C18.2 27.6999 14 23.6999 14 18.7999ZM35.3 26.5999L44.5 41.9999L42.9 42.8999L33.6 27.4999L35.3 26.5999ZM11.6 38.3999H12.2V43.7999C12.2 44.0999 12.5 44.3999 12.8 44.3999H32.6C32.9 44.3999 33.2 44.0999 33.2 43.7999V37.8999C33.2 37.5999 32.9 37.2999 32.6 37.2999H32V35.4999H32.6C32.9 35.4999 33.2 35.1999 33.2 34.8999V32.4999H33.8C34.1 32.4999 34.4 32.1999 34.4 31.8999V31.0999L42.2 43.9999C42.3 44.0999 42.4 44.1999 42.6 44.2999C42.8 44.2999 42.9 44.2999 43.1 44.1999L45.8 42.6999C46.1 42.4999 46.2 42.1999 46 41.8999L36 25.4999C35.8 25.1999 35.5 25.0999 35.2 25.2999L32.5 26.7999C32.2 26.9999 32.1 27.2999 32.3 27.5999L32.7 28.2999H26.8C32.3 26.3999 35.1 20.6999 33.2 15.3999C31.3 10.0999 25.3 7.39989 19.8 9.29989C14.3 11.1999 11.5 16.8999 13.4 22.1999C14.5 25.0999 16.8 27.2999 19.8 28.2999H14C13.7 28.2999 13.4 28.5999 13.4 28.8999V31.2999H12.8C12.5 31.2999 12.2 31.5999 12.2 31.8999V34.2999H11.6C11.3 34.2999 11 34.5999 11 34.8999V37.8999C11 38.0999 11.2 38.3999 11.6 38.3999Z" fill="white"/>
<path d="M21.3001 15.2H23.0001C23.6001 15.2 24.0001 15.3 24.4001 15.6C24.7001 15.9 24.9001 16.3 24.9001 16.8C24.9001 17.3 24.7001 17.7 24.4001 18C24.1001 18.3 23.6001 18.4 23.1001 18.4H21.4001V15.2H21.3001ZM25.1001 22.8H26.3001V22.7L24.3001 19.1C24.8001 18.9 25.2001 18.6 25.5001 18.2C25.8001 17.8 25.9001 17.3 25.9001 16.8C25.9001 16 25.6001 15.3 25.1001 14.9C24.6001 14.5 23.8001 14.2 22.9001 14.2H20.1001V22.7H21.2001V19.2H23.2001L25.1001 22.8Z" fill="white"/>
</svg>
