<svg width="55" height="55" viewBox="0 0 55 55" fill="none" xmlns="http://www.w3.org/2000/svg">
<path d="M27.5 55C42.7 55 55 42.7 55 27.5C55 12.3 42.7 0 27.5 0C12.3 0 0 12.3 0 27.5C0 42.7 12.3 55 27.5 55Z" fill="#25784B"/>
<path d="M47.5001 27L46.9001 27.4C46.6001 27.6 46.2001 27.5 46.1001 27.2L40.2001 17.8C40.0001 17.5 40.1001 17.1 40.4001 17L41.0001 16.6C41.1001 16.5 41.2001 16.5 41.3001 16.5H41.4001C41.6001 16.5 41.7001 16.6 41.8001 16.8L47.7001 26.2C47.8001 26.4 47.7001 26.8 47.5001 27ZM41.3001 32.7L40.6001 33.7C40.4001 34 40.1001 34.1 39.8001 33.9L32.8001 29.7C32.5001 29.5 32.0001 29.6 31.8001 29.9C31.6001 30.2 31.7001 30.7 32.0001 30.9L38.6001 34.8L37.7001 36.1C37.5001 36.4 37.2001 36.4 36.9001 36.3L31.1001 33.2C30.7001 33 30.3001 33.1 30.1001 33.5C29.9001 33.9 30.0001 34.3 30.4001 34.5L35.7001 37.4C35.5001 37.7 35.2001 38.1 34.8001 38.7C34.6001 39 34.3001 39.1 34.0001 38.9L29.5001 36.6C29.1001 36.4 28.7001 36.6 28.5001 36.9C28.3001 37.3 28.5001 37.7 28.8001 37.9L32.3001 39.7L32.0001 40.2C31.9001 40.4 31.7001 40.4 31.5001 40.4L26.9001 39.7L27.2001 39.2C27.8001 38.3 27.6001 37.1 26.8001 36.4L26.5001 36.2C26.3001 36 26.0001 35.9 25.8001 35.8C26.1001 35 25.9001 34 25.2001 33.4L24.6001 33C24.3001 32.8 24.0001 32.6 23.6001 32.6C23.6001 32.4 23.6001 32.3 23.6001 32.1C23.5001 31.6 23.2001 31.1 22.7001 30.8L22.0001 30.3C21.1001 29.7 19.8001 29.9 19.2001 30.9L19.0001 31.1C18.9001 30.9 18.7001 30.8 18.5001 30.6L17.9001 30.2C17.0001 29.6 15.8001 29.9 15.2001 30.7L12.7001 27.4L17.7001 19.5L19.2001 20.3C19.4001 20.4 19.6001 20.5 19.8001 20.5L21.9001 20.8L19.9001 23.5C19.6001 23.9 19.4001 24.5 19.5001 25C19.6001 25.5 19.9001 26 20.3001 26.4C20.9001 26.9 21.8001 26.9 22.5001 26.6L28.1001 23.7C28.3001 23.6 28.5001 23.6 28.7001 23.7L41.3001 31.9C41.4001 32 41.5001 32.1 41.6001 32.3C41.4001 32.4 41.3001 32.6 41.3001 32.7ZM24.0001 40.5L23.7001 40.4C23.5001 40.3 23.4001 40.1 23.4001 40C23.4001 39.9 23.4001 39.8 23.4001 39.6L24.9001 37.5C25.0001 37.4 25.1001 37.3 25.3001 37.3H25.4001C25.5001 37.3 25.7001 37.3 25.8001 37.4L26.1001 37.6C26.3001 37.8 26.4001 38.2 26.2001 38.4L24.9001 40.3C24.6001 40.5 24.3001 40.6 24.0001 40.5ZM21.7001 39.4C21.5001 39.7 21.2001 39.7 20.9001 39.6L20.2001 39.2C20.0001 39.1 19.9001 39 19.9001 38.8C19.9001 38.7 19.9001 38.5 19.9001 38.4L22.8001 34.2C22.9001 34.1 23.0001 34 23.2001 34H23.3001C23.4001 34 23.6001 34 23.7001 34.1L24.3001 34.6C24.5001 34.8 24.6001 35.2 24.4001 35.4L23.6001 36.6C23.6001 36.6 23.6001 36.6 23.6001 36.7L22.3001 38.6C22.3001 38.7 22.2001 38.7 22.2001 38.8L21.7001 39.4ZM18.1001 38.2C17.9001 38.2 17.8001 38.2 17.6001 38.1L17.0001 37.7C16.7001 37.5 16.7001 37.1 16.8001 36.9L17.1001 36.4C17.1001 36.4 17.1001 36.4 17.2001 36.3C17.8001 35.5 18.5001 34.4 19.1001 33.6L20.3001 31.8C20.4001 31.6 20.6001 31.5 20.8001 31.5C20.9001 31.5 21.0001 31.5 21.1001 31.6L21.8001 32C21.9001 32.1 22.0001 32.2 22.1001 32.4C22.1001 32.6 22.1001 32.7 22.0001 32.9L21.6001 33.5L18.8001 37.6C18.8001 37.7 18.7001 37.7 18.7001 37.8L18.5001 38C18.4001 38.1 18.3001 38.2 18.1001 38.2ZM14.6001 35.2C14.3001 35 14.3001 34.6 14.5001 34.4L16.4001 31.7C16.5001 31.5 16.7001 31.4 16.9001 31.4C17.0001 31.4 17.1001 31.4 17.2001 31.5L17.8001 31.9C17.9001 32 18.0001 32.1 18.1001 32.3C18.1001 32.5 18.1001 32.6 18.0001 32.7L16.0001 35.5C15.9001 35.6 15.8001 35.7 15.6001 35.7C15.4001 35.7 15.3001 35.7 15.1001 35.6L14.6001 35.2ZM10.1001 27.7L9.5001 27.3C9.20009 27.1 9.1001 26.8 9.3001 26.5L15.2001 17.1C15.3001 17 15.4001 16.9 15.6001 16.8H15.7001C15.8001 16.8 15.9001 16.8 16.0001 16.9L16.6001 17.3C16.9001 17.5 17.0001 17.8 16.8001 18.1L10.9001 27.5C10.8001 27.8 10.4001 27.9 10.1001 27.7ZM25.3001 19.9L28.4001 19.3C30.1001 19 31.8001 19 33.5001 19.4L36.8001 20.1C37.2001 20.2 37.6001 20.1 38.0001 20L39.4001 19.5L44.6001 27.7L41.6001 30.5L29.3001 22.5C28.7001 22.1 27.9001 22.1 27.2001 22.4L21.6001 25.3C21.4001 25.4 21.1001 25.4 21.0001 25.2C20.9001 25.1 20.8001 25 20.8001 24.8C20.8001 24.6 20.8001 24.5 20.9001 24.4L23.5001 21C24.0001 20.4 24.6001 20 25.3001 19.9ZM48.9001 25.4L42.9001 16C42.6001 15.5 42.2001 15.2 41.6001 15.1C41.1001 15 40.5001 15.1 40.1001 15.4L39.5001 15.8C38.7001 16.3 38.4001 17.3 38.7001 18.2L37.5001 18.7C37.4001 18.7 37.3001 18.8 37.2001 18.7L33.9001 18C32.0001 17.6 30.1001 17.6 28.2001 17.9L25.1001 18.5C24.3001 18.7 23.5001 19.1 22.9001 19.6L20.0001 19.1C19.9001 19.1 19.9001 19.1 19.8001 19L18.4001 18.3C18.6001 17.4 18.3001 16.5 17.5001 16L16.9001 15.6C16.4001 15.3 15.9001 15.2 15.4001 15.3C14.9001 15.4 14.4001 15.7 14.1001 16.2L8.20009 25.6C7.60009 26.6 7.9001 27.8 8.8001 28.4L9.40009 28.8C9.70009 29 10.1001 29.1 10.5001 29.1C11.0001 29.1 11.5001 28.9 11.9001 28.6L14.4001 31.9L13.4001 33.4C12.8001 34.3 13.0001 35.6 13.9001 36.2L14.5001 36.7C14.8001 36.9 15.1001 37 15.4001 37.1C15.4001 37.8 15.7001 38.4 16.3001 38.8L17.0001 39.3C17.3001 39.5 17.8001 39.7 18.2001 39.7C18.3001 39.7 18.4001 39.7 18.6001 39.7C18.7001 39.7 18.8001 39.7 18.9001 39.6C19.1001 40 19.4001 40.3 19.8001 40.5L20.5001 40.9C20.8001 41.1 21.1001 41.1 21.5001 41.1C21.8001 41.1 22.2001 41 22.5001 40.9C22.7001 41.3 23.0001 41.5 23.4001 41.7L23.7001 41.8C24.0001 41.9 24.2001 42 24.5001 42C25.2001 42 25.8001 41.7 26.2001 41.1L31.5001 41.9C31.6001 41.9 31.7001 41.9 31.8001 41.9C32.4001 41.9 33.0001 41.6 33.3001 41.2L34.0001 40.4C34.2001 40.5 34.4001 40.5 34.6001 40.5C35.3001 40.5 35.9001 40.2 36.3001 39.5C36.9001 38.6 37.2001 38.1 37.3001 37.9C37.3001 37.9 37.3001 37.9 37.4001 37.9C38.1001 37.9 38.7001 37.6 39.1001 37L40.1001 35.4C40.2001 35.4 40.2001 35.4 40.3001 35.4C41.0001 35.4 41.6001 35.1 42.0001 34.5L42.7001 33.5C43.0001 33 43.1001 32.5 43.0001 32C43.0001 31.8 42.9001 31.7 42.9001 31.6L45.9001 28.7C46.2001 28.8 46.5001 28.9 46.8001 28.9C47.2001 28.9 47.6001 28.8 47.9001 28.6L48.5001 28.2C49.2001 27.6 49.5001 26.3 48.9001 25.4Z" fill="white"/>
</svg>
