<svg width="55" height="55" viewBox="0 0 55 55" fill="none" xmlns="http://www.w3.org/2000/svg">
<path d="M27.5 55C42.7 55 55 42.7 55 27.5C55 12.3 42.7 0 27.5 0C12.3 0 0 12.3 0 27.5C0 42.7 12.3 55 27.5 55Z" fill="#CBAD6C"/>
<path d="M47.5 27L46.9 27.4C46.6 27.6 46.2 27.5 46.1 27.2L40.2 17.8C40 17.5 40.1 17.1 40.4 17L41 16.6C41.1 16.5 41.2 16.5 41.3 16.5H41.4C41.6 16.5 41.7 16.6 41.8 16.8L47.7 26.2C47.8 26.4 47.7 26.8 47.5 27ZM41.3 32.7L40.6 33.7C40.4 34 40.1 34.1 39.8 33.9L32.8 29.7C32.5 29.5 32 29.6 31.8 29.9C31.6 30.2 31.7 30.7 32 30.9L38.6 34.8L37.7 36.1C37.5 36.4 37.2 36.4 36.9 36.3L31.1 33.2C30.7 33 30.3 33.1 30.1 33.5C29.9 33.9 30 34.3 30.4 34.5L35.7 37.4C35.5 37.7 35.2 38.1 34.8 38.7C34.6 39 34.3 39.1 34 38.9L29.5 36.6C29.1 36.4 28.7 36.6 28.5 36.9C28.3 37.3 28.5 37.7 28.8 37.9L32.3 39.7L32 40.2C31.9 40.4 31.7 40.4 31.5 40.4L26.9 39.7L27.2 39.2C27.8 38.3 27.6 37.1 26.8 36.4L26.5 36.2C26.3 36 26 35.9 25.8 35.8C26.1 35 25.9 34 25.2 33.4L24.6 33C24.3 32.8 24 32.6 23.6 32.6C23.6 32.4 23.6 32.3 23.6 32.1C23.5 31.6 23.2 31.1 22.7 30.8L22 30.3C21.1 29.7 19.8 29.9 19.2 30.9L19 31.1C18.9 30.9 18.7 30.8 18.5 30.6L17.9 30.2C17 29.6 15.8 29.9 15.2 30.7L12.7 27.4L17.7 19.5L19.2 20.3C19.4 20.4 19.6 20.5 19.8 20.5L21.9 20.8L19.9 23.5C19.6 23.9 19.4 24.5 19.5 25C19.6 25.5 19.9 26 20.3 26.4C20.9 26.9 21.8 26.9 22.5 26.6L28.1 23.7C28.3 23.6 28.5 23.6 28.7 23.7L41.3 31.9C41.4 32 41.5 32.1 41.6 32.3C41.4 32.4 41.3 32.6 41.3 32.7ZM24 40.5L23.7 40.4C23.5 40.3 23.4 40.1 23.4 40C23.4 39.9 23.4 39.8 23.4 39.6L24.9 37.5C25 37.4 25.1 37.3 25.3 37.3H25.4C25.5 37.3 25.7 37.3 25.8 37.4L26.1 37.6C26.3 37.8 26.4 38.2 26.2 38.4L24.9 40.3C24.6 40.5 24.3 40.6 24 40.5ZM21.7 39.4C21.5 39.7 21.2 39.7 20.9 39.6L20.2 39.2C20 39.1 19.9 39 19.9 38.8C19.9 38.7 19.9 38.5 19.9 38.4L22.8 34.2C22.9 34.1 23 34 23.2 34H23.3C23.4 34 23.6 34 23.7 34.1L24.3 34.6C24.5 34.8 24.6 35.2 24.4 35.4L23.6 36.6C23.6 36.6 23.6 36.6 23.6 36.7L22.3 38.6C22.3 38.7 22.2 38.7 22.2 38.8L21.7 39.4ZM18.1 38.2C17.9 38.2 17.8 38.2 17.6 38.1L17 37.7C16.7 37.5 16.7 37.1 16.8 36.9L17.1 36.4C17.1 36.4 17.1 36.4 17.2 36.3C17.8 35.5 18.5 34.4 19.1 33.6L20.3 31.8C20.4 31.6 20.6 31.5 20.8 31.5C20.9 31.5 21 31.5 21.1 31.6L21.8 32C21.9 32.1 22 32.2 22.1 32.4C22.1 32.6 22.1 32.7 22 32.9L21.6 33.5L18.8 37.6C18.8 37.7 18.7 37.7 18.7 37.8L18.5 38C18.4 38.1 18.3 38.2 18.1 38.2ZM14.6 35.2C14.3 35 14.3 34.6 14.5 34.4L16.4 31.7C16.5 31.5 16.7 31.4 16.9 31.4C17 31.4 17.1 31.4 17.2 31.5L17.8 31.9C17.9 32 18 32.1 18.1 32.3C18.1 32.5 18.1 32.6 18 32.7L16 35.5C15.9 35.6 15.8 35.7 15.6 35.7C15.4 35.7 15.3 35.7 15.1 35.6L14.6 35.2ZM10.1 27.7L9.49997 27.3C9.19997 27.1 9.09997 26.8 9.29997 26.5L15.2 17.1C15.3 17 15.4 16.9 15.6 16.8H15.7C15.8 16.8 15.9 16.8 16 16.9L16.6 17.3C16.9 17.5 17 17.8 16.8 18.1L10.9 27.5C10.8 27.8 10.4 27.9 10.1 27.7ZM25.3 19.9L28.4 19.3C30.1 19 31.8 19 33.5 19.4L36.8 20.1C37.2 20.2 37.6 20.1 38 20L39.4 19.5L44.6 27.7L41.6 30.5L29.3 22.5C28.7 22.1 27.9 22.1 27.2 22.4L21.6 25.3C21.4 25.4 21.1 25.4 21 25.2C20.9 25.1 20.8 25 20.8 24.8C20.8 24.6 20.8 24.5 20.9 24.4L23.5 21C24 20.4 24.6 20 25.3 19.9ZM48.9 25.4L42.9 16C42.6 15.5 42.2 15.2 41.6 15.1C41.1 15 40.5 15.1 40.1 15.4L39.5 15.8C38.7 16.3 38.4 17.3 38.7 18.2L37.5 18.7C37.4 18.7 37.3 18.8 37.2 18.7L33.9 18C32 17.6 30.1 17.6 28.2 17.9L25.1 18.5C24.3 18.7 23.5 19.1 22.9 19.6L20 19.1C19.9 19.1 19.9 19.1 19.8 19L18.4 18.3C18.6 17.4 18.3 16.5 17.5 16L16.9 15.6C16.4 15.3 15.9 15.2 15.4 15.3C14.9 15.4 14.4 15.7 14.1 16.2L8.19997 25.6C7.59997 26.6 7.89997 27.8 8.79997 28.4L9.39997 28.8C9.69997 29 10.1 29.1 10.5 29.1C11 29.1 11.5 28.9 11.9 28.6L14.4 31.9L13.4 33.4C12.8 34.3 13 35.6 13.9 36.2L14.5 36.7C14.8 36.9 15.1 37 15.4 37.1C15.4 37.8 15.7 38.4 16.3 38.8L17 39.3C17.3 39.5 17.8 39.7 18.2 39.7C18.3 39.7 18.4 39.7 18.6 39.7C18.7 39.7 18.8 39.7 18.9 39.6C19.1 40 19.4 40.3 19.8 40.5L20.5 40.9C20.8 41.1 21.1 41.1 21.5 41.1C21.8 41.1 22.2 41 22.5 40.9C22.7 41.3 23 41.5 23.4 41.7L23.7 41.8C24 41.9 24.2 42 24.5 42C25.2 42 25.8 41.7 26.2 41.1L31.5 41.9C31.6 41.9 31.7 41.9 31.8 41.9C32.4 41.9 33 41.6 33.3 41.2L34 40.4C34.2 40.5 34.4 40.5 34.6 40.5C35.3 40.5 35.9 40.2 36.3 39.5C36.9 38.6 37.2 38.1 37.3 37.9C37.3 37.9 37.3 37.9 37.4 37.9C38.1 37.9 38.7 37.6 39.1 37L40.1 35.4C40.2 35.4 40.2 35.4 40.3 35.4C41 35.4 41.6 35.1 42 34.5L42.7 33.5C43 33 43.1 32.5 43 32C43 31.8 42.9 31.7 42.9 31.6L45.9 28.7C46.2 28.8 46.5 28.9 46.8 28.9C47.2 28.9 47.6 28.8 47.9 28.6L48.5 28.2C49.2 27.6 49.5 26.3 48.9 25.4Z" fill="white"/>
</svg>
