<svg width="55" height="55" viewBox="0 0 55 55" fill="none" xmlns="http://www.w3.org/2000/svg">
<path d="M27.5 55C42.7 55 55 42.7 55 27.5C55 12.3 42.7 0 27.5 0C12.3 0 0 12.3 0 27.5C0 42.7 12.3 55 27.5 55Z" fill="#CBAD6C"/>
<path d="M45.2405 37.6705L45.7794 37.304L45.5109 36.739C45.487 36.6975 45.463 36.6559 45.439 36.6144L45.0074 35.8667C44.168 34.413 42.2934 34.1661 40.716 34.6338L40.62 34.4677C39.7327 32.9309 37.5937 32.7259 35.9776 33.3267L32.8599 35.1267C33.1104 34.7606 33.2936 34.3779 33.4095 33.9787L33.5694 33.0556L23.5011 30.6168L18.7672 33.0176L15.1299 35.1176L13.763 32.75L8.99989 35.5L9.64737 36.6215L13.2414 34.5465L19.2126 44.8889L15.6186 46.9639L16.2661 48.0854L21.0292 45.3354L19.7103 43.0509L35.95 42.979L45.2405 37.6705ZM36.4998 34.6313C37.5484 34.2474 38.9713 34.312 39.4989 35.2258L39.5708 35.3504L35.5438 37.6754L32.7899 37.1055L32.4535 37.0228L36.4998 34.6313ZM35.6443 41.5494L18.9622 41.6552L15.7967 36.1725L19.3907 34.0975L23.6483 31.9717L31.9912 34.0222C31.6295 34.8956 30.6189 35.6452 29.7682 35.4718L23.9147 34.0331L23.3157 36.0958L32.3315 38.3116L35.6237 39.0138L40.8631 35.9888C41.9117 35.6049 43.3346 35.6695 43.8622 36.5833L44.0061 36.8325L35.6443 41.5494Z" fill="white"/>
<path d="M23.7789 8V8.81701V11.268H16.4258V12.0851V15.6254V28.1529H39.5744V15.6254V11.268H32.2213V8H23.7789ZM25.1406 9.36169H30.5873V11.268H25.1406V9.36169ZM17.7875 12.6297H23.7789H32.2213H38.2127V15.8978L30.5873 18.0765V17.2595H25.4129V18.0765L17.7875 15.8978V12.6297ZM17.7875 17.5318L25.4129 19.4382V21.6169H30.5873V19.4382L38.2127 17.5318V26.5189H17.7875V17.5318ZM26.7746 18.6211H28.9533V18.8935V19.9828H26.7746V18.8935C26.7746 18.8935 26.7746 18.8935 26.7746 18.6211Z" fill="white"/>
</svg>
