<svg width="55" height="55" viewBox="0 0 55 55" fill="none" xmlns="http://www.w3.org/2000/svg">
<path d="M-1.20206e-06 27.5C-1.86648e-06 42.7 12.3 55 27.5 55C42.7 55 55 42.7 55 27.5C55 12.3 42.7 -5.3765e-07 27.5 -1.20206e-06C12.3 -1.86648e-06 -5.3765e-07 12.3 -1.20206e-06 27.5Z" fill="#CBAD6C"/>
<path fill-rule="evenodd" clip-rule="evenodd" d="M12 14.6213L22 14.6213L22 16.6213L12 16.6213L12 14.6213Z" fill="white"/>
<path fill-rule="evenodd" clip-rule="evenodd" d="M12 25.6213L32 25.6213L32 27.6213L12 27.6213L12 25.6213Z" fill="white"/>
<path fill-rule="evenodd" clip-rule="evenodd" d="M12 37.6213L42 37.6213L42 39.6213L12 39.6213L12 37.6213Z" fill="white"/>
<path fill-rule="evenodd" clip-rule="evenodd" d="M21.5857 15.6214L17.6715 11.7072L19.0857 10.293L24.4141 15.6214L19.0857 20.9499L17.6715 19.5356L21.5857 15.6214Z" fill="white"/>
<path fill-rule="evenodd" clip-rule="evenodd" d="M31.5857 26.6214L27.2928 22.3285L28.707 20.9143L34.4141 26.6214L28.707 32.3285L27.2928 30.9143L31.5857 26.6214Z" fill="white"/>
<path fill-rule="evenodd" clip-rule="evenodd" d="M41.5857 38.6214L37.2928 34.3285L38.707 32.9143L44.4141 38.6214L38.707 44.3285L37.2928 42.9143L41.5857 38.6214Z" fill="white"/>
</svg>
