<svg xmlns="http://www.w3.org/2000/svg" viewBox="0 0 413.85 88.22"><defs><style>.cls-1{fill:#6f6f71;}.cls-2{fill:#6fc5a0;}.cls-3{fill:#04774b;}</style></defs><g id="Layer_2" data-name="Layer 2"><g id="Layer_1-2" data-name="Layer 1"><path class="cls-1" d="M0,28.58c1.73-.69,13.51.46,17,1.82A56.39,56.39,0,0,0,27,63.28,57,57,0,0,0,54.33,84.66C28.32,81.3,3.08,58.44,0,28.58Z"/><path class="cls-1" d="M115.42,30.38a61.63,61.63,0,0,1,15.8-1.57,61.12,61.12,0,0,1-4,16,64.41,64.41,0,0,1-21.07,27.77A61.44,61.44,0,0,1,78.22,84.75c2.09-1,4.22-1.84,6.25-2.91a62.6,62.6,0,0,0,6-3.6,58.08,58.08,0,0,0,5.57-4.33,58.85,58.85,0,0,0,5-5,56.83,56.83,0,0,0,4.34-5.56A55.56,55.56,0,0,0,109,57.45,58.46,58.46,0,0,0,111.9,51c.81-2.2,1.43-4.47,2-6.73a36.71,36.71,0,0,0,1.2-6.92A35.52,35.52,0,0,0,115.42,30.38Z"/><path class="cls-2" d="M75.07,82.18A56.26,56.26,0,0,0,91.62,61.62,59.83,59.83,0,0,0,97.3,35.91a52.87,52.87,0,0,1,15-4.93c.65,3.13-.56,12.42-3.23,19.24a54.6,54.6,0,0,1-22.4,27C82.19,80,76.54,82.35,75.07,82.18Z"/><path class="cls-2" d="M57.25,82.31c-1.35-.44-2.73-.81-4-1.35a55.1,55.1,0,0,1-12.13-7,52.89,52.89,0,0,1-7.65-7.23A53.4,53.4,0,0,1,23.17,49.34a52.4,52.4,0,0,1-2.55-10,41.28,41.28,0,0,1-.55-8.09,1,1,0,0,1,.1-.27A49.41,49.41,0,0,1,35.1,35.9s.08.09.08.16c.09,1.79.13,3.58.27,5.36a57,57,0,0,0,1.27,8.21,57.91,57.91,0,0,0,4.4,12.53A55.2,55.2,0,0,0,47,71.68,58,58,0,0,0,53.66,79c.82.75,1.71,1.43,2.55,2.16.38.34.71.73,1.07,1.09Z"/><path class="cls-3" d="M75.87,31.17c5,12.53,4.58,31.75-5.42,46.84.13-.72.21-1.25.32-1.77a53.9,53.9,0,0,0,1-8.3,56.69,56.69,0,0,0-3.49-22.42,2.28,2.28,0,0,1-.07-1.83,55,55,0,0,1,7.25-12.07C75.59,31.46,75.73,31.32,75.87,31.17Z"/><path class="cls-3" d="M61.65,77.46a52.91,52.91,0,0,1-7.71-21.63A54.1,54.1,0,0,1,56.57,31c1,1.31,1.84,2.43,2.65,3.59a56.07,56.07,0,0,1,4.92,8.75,2.75,2.75,0,0,1,.09,2.28A54.54,54.54,0,0,0,61.05,58.8a53,53,0,0,0-.38,8.25,55.28,55.28,0,0,0,1,9.15c.08.38.11.77.17,1.16Z"/><path class="cls-3" d="M82,47.58a53.38,53.38,0,0,1,12.25-9.95,54.74,54.74,0,0,1-8.55,28.5A47.74,47.74,0,0,1,73.43,79.39,62.43,62.43,0,0,0,80,64.13,56.63,56.63,0,0,0,82,47.58Z"/><path class="cls-3" d="M59.16,79.44a10.22,10.22,0,0,1-1.27-.77A53.84,53.84,0,0,1,40,50.18a54.07,54.07,0,0,1-1.65-11.46c0-.32,0-.63,0-1,3.06,1.39,9.06,6.25,12.11,9.76.11,2.22.16,4.37.32,6.52a54.74,54.74,0,0,0,3.32,14.89,55.89,55.89,0,0,0,4.82,9.86c.12.2.2.43.3.64Z"/><path class="cls-2" d="M38.56,34.26C38.27,30.5,40,22.58,41.65,18.62a4.6,4.6,0,0,1,.83.32,48.59,48.59,0,0,1,8.35,6.13c1.13,1.06,2.27,2.1,3.46,3.2a61.87,61.87,0,0,0-3.56,15.16A57.59,57.59,0,0,0,38.56,34.26Z"/><path class="cls-2" d="M78.25,28.36a54.26,54.26,0,0,1,12.59-9.9,50.16,50.16,0,0,1,3.21,15.73,54.67,54.67,0,0,0-12.27,9.29A61.49,61.49,0,0,0,78.25,28.36Z"/><path class="cls-2" d="M57.83,27.79a51.85,51.85,0,0,1,8.41-13.64,51.48,51.48,0,0,1,8.45,13.62,61,61,0,0,0-8.45,12.88A58.89,58.89,0,0,0,57.83,27.79Z"/><path class="cls-1" d="M172.84,88.22h-1.45V.06h1.45Z"/><path class="cls-1" d="M94.77,17.35a61.88,61.88,0,0,1,15-7,63.5,63.5,0,0,1,1.43,17.63c-.57.35-.86,0-1.17-.33a59.08,59.08,0,0,0-9.06-6.83c-1.62-1-3.33-1.87-5-2.8Z"/><path class="cls-1" d="M21.5,28.25c-.73-3.56.16-14.7,1.35-17.88a57.2,57.2,0,0,1,14.83,7c-1.2.63-2.36,1.2-3.48,1.83s-2.27,1.33-3.38,2-2.12,1.41-3.15,2.16-2.06,1.65-3.13,2.42S22.75,27.66,21.5,28.25Z"/><path class="cls-1" d="M261.34,68.22V82h-2.66V63.63h2.6l6.07,7.49,6-7.49h2.49V82h-2.58V67.77l-5.63,7c-.71.19-.93-.34-1.21-.69-1.11-1.35-2.19-2.74-3.28-4.11-.52-.64-1.05-1.27-1.58-1.9Z"/><path class="cls-1" d="M343.83,53.43V39.22l-5.6,7c-.69.24-.92-.28-1.2-.63-1.11-1.36-2.19-2.74-3.29-4.11-.52-.65-1.05-1.29-1.76-2.15a28.67,28.67,0,0,0-.1,3.63c0,1.16,0,2.32,0,3.48v7h-2.63V35.09h2.6l6.06,7.47,6-7.5h2.45V53.43Z"/><path class="cls-1" d="M240.09,46.49a9.48,9.48,0,0,1-1-.91c-1.43-1.77-2.84-3.56-4.26-5.33-.19-.24-.42-.45-.61-.65l-.18.06a1.17,1.17,0,0,0,0,.11.35.35,0,0,0,0,.11V53.37a10.55,10.55,0,0,1-2.64.13V35.07h2.61L240,42.56l6-7.48h2.49V53.44h-2.57V39.2Z"/><path class="cls-1" d="M291.14,24.89V6.53a4.07,4.07,0,0,1,.51-.07c2.44,0,4.88-.06,7.31,0a9.17,9.17,0,0,1,6.75,2.81,9.3,9.3,0,0,1,.72,11.85,9.09,9.09,0,0,1-7.49,3.78c-2.27.05-4.55,0-6.83,0C291.81,24.94,291.5,24.91,291.14,24.89Zm2.78-2.37c1.6,0,3.08.08,4.55,0a8.1,8.1,0,0,0,3.77-1,6.5,6.5,0,0,0,3.08-4.76,6.42,6.42,0,0,0-5.47-7.63,49.14,49.14,0,0,0-5-.23,7.12,7.12,0,0,0-.92.07Z"/><path class="cls-1" d="M296.52,53.74a9.26,9.26,0,0,1-8.28-4.12c-3.42-5-1.28-13.22,6.06-14.62A10.55,10.55,0,0,1,302,36.13a8.92,8.92,0,0,1,4.62,7.61,9,9,0,0,1-1.71,6.07,9.77,9.77,0,0,1-7.81,3.93Zm7.29-9.44a6.9,6.9,0,0,0-6.95-7.09,7.06,7.06,0,1,0,6.95,7.09Z"/><path class="cls-1" d="M372,53.47h-2.4V35.1h2.16l12.21,14v-14h2.59V53.38c-.7.28-1.46,0-2.23.15L372,39.35Z"/><path class="cls-1" d="M330.44,6.49h2.12l12.26,14.1V6.53h2.58V24.86h-2.33L332.83,10.78v14.1h-2.39Z"/><path class="cls-1" d="M51.23.06a62.31,62.31,0,0,1,11.13,11,67.75,67.75,0,0,0-18,3.57C45.11,11.08,49.3,2.31,51.23.06Z"/><path class="cls-1" d="M88.27,14.68A66.19,66.19,0,0,0,70.11,11.1,64.43,64.43,0,0,1,81.34,0,61.73,61.73,0,0,1,88.27,14.68Z"/><path class="cls-1" d="M234.37,16.86v8h-2.58V6.47c2.31.11,4.63-.34,6.89.27a4.57,4.57,0,0,1,3.68,3.79A4.68,4.68,0,0,1,240,15.78l-.39.22a5.31,5.31,0,0,0,.51.61,18.09,18.09,0,0,1,3,4c.45.71.87,1.43,1.33,2.13s.94,1.37,1.48,2.15h-3.22c-.83-1.33-1.69-2.76-2.62-4.14a21.26,21.26,0,0,0-2-2.54C236.89,16.88,236.4,16.75,234.37,16.86Zm.07-2.41c1.07-.1,2.1-.12,3.1-.3a2.43,2.43,0,0,0,2.12-2.47,2.53,2.53,0,0,0-2-2.59,14.77,14.77,0,0,0-3.2-.23Z"/><path class="cls-3" d="M66.25,81.4a52.89,52.89,0,0,1,0-32.52A52.75,52.75,0,0,1,66.25,81.4Z"/><path class="cls-1" d="M319.85,63.62h2.56c0,.34,0,.64,0,.95,0,3.08,0,6.16,0,9.24,0,.75.12,1.5.18,2.26a3.77,3.77,0,0,0,2.77,3.39,6.48,6.48,0,0,0,4.67,0A4.25,4.25,0,0,0,333,75.12c0-2.88,0-5.76,0-8.64V63.66h2.55a.86.86,0,0,1,.11.28c0,4,0,8,0,12A6,6,0,0,1,332.75,81a7.33,7.33,0,0,1-3.11,1.14c-2.5.32-4.93.23-7.12-1.28a5.6,5.6,0,0,1-2.63-4.48C319.76,72.18,319.85,68,319.85,63.62Z"/><path class="cls-1" d="M295.34,63.64h2.56a1,1,0,0,1,.09.28c0,4,.06,8.08,0,12.11A5.89,5.89,0,0,1,295.19,81a7.61,7.61,0,0,1-3.55,1.29,11.94,11.94,0,0,1-4.86-.38,6.39,6.39,0,0,1-4.63-6.14c0-4,0-8,0-12.06h2.57a8,8,0,0,1,.07.88c0,3.12,0,6.24,0,9.36,0,.75.13,1.51.19,2.26a3.64,3.64,0,0,0,2.4,3.16,6.55,6.55,0,0,0,5.12.11,4.18,4.18,0,0,0,2.82-4.16c0-2.16,0-4.32,0-6.48C295.35,67.11,295.34,65.43,295.34,63.64Z"/><path class="cls-1" d="M385.39,19.46c-.39.89-.79,1.79-1.17,2.7s-.76,1.82-1.14,2.74h-2.79c2.64-6.25,5.24-12.42,7.87-18.62h2c2.71,6.15,5.44,12.33,8.21,18.6h-2.79l-2.43-5.42ZM392.11,17l-2.83-6.27H389L386.43,17Z"/><path class="cls-1" d="M363.53,37.45h-7.69v5.47h7.4v2.39h-7.39V51a9.77,9.77,0,0,0,2.54.1c.88,0,1.76,0,2.64,0h2.67v2.34H353V35.2a76.26,76.26,0,0,1,10.46-.12c0,.37,0,.75,0,1.13Z"/><path class="cls-1" d="M313.92,6.5h10.42V8.84h-7.59v5.51h7.34v2.39h-7.33v5.75h7.8v2.37H313.92Z"/><path class="cls-1" d="M250.56,6.5H261V8.84h-7.59v5.51h7.34v2.39H253.4v5.75h7.8v2.37H250.56Z"/><path class="cls-1" d="M217.83,45.3v5.79h7.89v2.33H215V35.1h10.42v2.3h-7.59v5.51h7.34V45.3Z"/><path class="cls-1" d="M255.08,35c2.31,0,4.56-.12,6.78,0a4.77,4.77,0,0,1,4.48,3.22,5.31,5.31,0,0,1-.95,5.59,5.5,5.5,0,0,1-4.1,1.67c-1.15.06-2.31,0-3.57,0v7.87h-2.64Zm2.63,8.12c1.22,0,2.38.07,3.52,0a2.72,2.72,0,0,0,2.67-2.8,2.58,2.58,0,0,0-2.6-2.84,30.58,30.58,0,0,0-3.59,0Z"/><path class="cls-1" d="M217.6,17.14v7.72H215V6.54c.23,0,.5-.07.77-.07,1.87,0,3.76,0,5.63,0a5.09,5.09,0,0,1,4.44,2.39c1.75,2.83.63,7.4-3.44,7.92C220.86,17,219.31,17,217.6,17.14Zm0-2.52c.62,0,1.17,0,1.72,0s1.2,0,1.79,0a2.75,2.75,0,0,0,2.68-2.8,2.59,2.59,0,0,0-2.59-2.85,30.77,30.77,0,0,0-3.6,0Z"/><path class="cls-1" d="M265.83,23.42V20.1c.45.45.8.81,1.17,1.14a5.49,5.49,0,0,0,3.92,1.51,2.53,2.53,0,0,0,2.51-1.51,2.39,2.39,0,0,0-.76-2.82c-.67-.56-1.38-1.07-2.09-1.58-1.11-.78-2.28-1.48-3.32-2.34a4.31,4.31,0,0,1-1.37-4.86,4.63,4.63,0,0,1,3.54-3.23,7.46,7.46,0,0,1,6,1.08v3a7.27,7.27,0,0,0-3.6-1.84,3.69,3.69,0,0,0-2.64.48,1.81,1.81,0,0,0-.55,2.78,6.14,6.14,0,0,0,1.4,1.29c1,.67,2,1.25,3.05,1.89a6.74,6.74,0,0,1,2.45,2.41c1.31,2.35.94,6-2.42,7.28a7.18,7.18,0,0,1-4.92,0A6.19,6.19,0,0,1,265.83,23.42Z"/><path class="cls-1" d="M341.19,80.56V77.24c.45.43.8.8,1.18,1.13a5.51,5.51,0,0,0,3.92,1.5,2.53,2.53,0,0,0,2.5-1.53,2.37,2.37,0,0,0-.77-2.81c-.67-.56-1.39-1.07-2.1-1.58-1.13-.81-2.34-1.52-3.39-2.42a4.26,4.26,0,0,1-1.27-4.79,4.52,4.52,0,0,1,3.43-3.18,7.64,7.64,0,0,1,6.08,1v3.09c-.51-.36-.94-.71-1.41-1a5,5,0,0,0-4.11-.68c-1.77.54-2.29,2.2-.95,3.49a21.81,21.81,0,0,0,2.91,2.07c.66.45,1.38.82,2,1.3a5.43,5.43,0,0,1,2.23,5.69,4.58,4.58,0,0,1-4.16,3.74A7.35,7.35,0,0,1,341.19,80.56Z"/><path class="cls-1" d="M223.81,64.55v3.09c-.51-.37-.93-.72-1.4-1A5,5,0,0,0,218.3,66c-1.78.54-2.31,2.21-1,3.48a20.81,20.81,0,0,0,3.21,2.26,9,9,0,0,1,3.24,2.78,5.16,5.16,0,0,1,.24,5.24,4.81,4.81,0,0,1-4.41,2.59,7.54,7.54,0,0,1-5.37-1.72V77.26c.43.41.78.78,1.15,1.11a5.51,5.51,0,0,0,3.92,1.5,2.54,2.54,0,0,0,2.51-1.52,2.36,2.36,0,0,0-.77-2.81c-.67-.56-1.38-1.07-2.09-1.58-1.13-.81-2.34-1.53-3.4-2.43a4.26,4.26,0,0,1-1.27-4.78,4.52,4.52,0,0,1,3.43-3.19A7.57,7.57,0,0,1,223.81,64.55Z"/><path class="cls-1" d="M397.86,53.42v-16h-6.25V35.1h15.45v2.33h-6.41v16Z"/><path class="cls-1" d="M358.77,8.87h-6.25V6.54h15.42V8.75a15.77,15.77,0,0,1-3.15.11c-1,0-2.07,0-3.22,0v16h-2.8Z"/><path class="cls-1" d="M237.7,66V82H235l0,0s-.07-.06-.07-.09V66h-6.26V63.75c.81-.21,13.3-.29,15.44-.09V66Z"/><path class="cls-2" d="M62.3,14.12a58.93,58.93,0,0,0-6.75,11.09,65.48,65.48,0,0,0-9.67-7.82A63.46,63.46,0,0,1,62.3,14.12Z"/><path class="cls-1" d="M317.89,53.45H315.1v-9.7l-6.81-8.68h3.3l4.82,6.15c1.84-2,3.27-4.17,5-6.16h3.27l-6.81,8.7Z"/><path class="cls-2" d="M70.21,14.12a64.37,64.37,0,0,1,16.44,3.27A62.36,62.36,0,0,0,77,25.2,59.07,59.07,0,0,0,70.21,14.12Z"/><path class="cls-1" d="M402.94,24.87V6.52h2.75v16h8.16v2.36Z"/><path class="cls-1" d="M282.6,51.08v2.34H271.69V35.09h2.69v16Z"/><path class="cls-1" d="M307.08,63.65v16h8.12V82H304.32V63.65Z"/><path class="cls-2" d="M35.38,32.41l-9.71-3.55a62.94,62.94,0,0,1,11.94-8A64.92,64.92,0,0,0,35.38,32.41Z"/><path class="cls-2" d="M95.09,21.15a53.1,53.1,0,0,1,11.73,7.71l-9.68,3.55A77.22,77.22,0,0,0,95.09,21.15Z"/><path class="cls-1" d="M375.64,24.91H373V6.54h2.64Z"/><path class="cls-1" d="M249.17,63.62h2.62V82h-2.62Z"/><path class="cls-1" d="M284.44,24.91H281.8V6.54h2.64Z"/><path class="cls-2" d="M57.28,82.28l.4.09-.06.15-.37-.21Z"/><path class="cls-3" d="M59.19,79.42l.15.12-.12.09-.06-.19Z"/></g></g></svg>