<svg width="55" height="55" viewBox="0 0 55 55" fill="none" xmlns="http://www.w3.org/2000/svg">
<path d="M27.5 55C42.7 55 55 42.7 55 27.5C55 12.3 42.7 0 27.5 0C12.3 0 0 12.3 0 27.5C0 42.7 12.3 55 27.5 55Z" fill="#CBAD6C"/>
<path d="M25.528 20.0255V17.9455H29.246V27.1365H26.906V20.0255H25.528Z" fill="white"/>
<path d="M39.175 32.2918C39.5406 32.0725 39.8753 31.8014 40.1379 31.4402C40.7737 30.567 40.7914 29.451 40.8073 28.466C40.8175 27.8421 40.8268 27.2532 40.9767 26.7925C41.1155 26.3645 41.444 25.9011 41.792 25.4099C42.3716 24.5924 43.0286 23.6657 43.0286 22.5405C43.0286 21.4152 42.3716 20.489 41.792 19.6715C41.444 19.1802 41.1151 18.7164 40.9762 18.2889C40.8268 17.8286 40.8175 17.2397 40.8073 16.6159C40.7914 15.6308 40.7737 14.5148 40.1379 13.6416C39.496 12.7595 38.4344 12.3974 37.498 12.0782C36.9126 11.8788 36.3595 11.69 35.9766 11.4119C35.6021 11.1391 35.2568 10.6758 34.8911 10.1854C34.296 9.38694 33.6213 8.48189 32.5695 8.14012C31.5587 7.81249 30.5476 8.12287 29.5691 8.42308C28.963 8.60922 28.3908 8.78519 27.8908 8.78519C27.3912 8.78519 26.8186 8.60967 26.2129 8.42353C25.2344 8.12287 24.222 7.81249 23.2121 8.14012C22.1603 8.48145 21.4856 9.38694 20.89 10.1854C20.5244 10.6758 20.1795 11.1387 19.805 11.4115C19.4221 11.69 18.869 11.8788 18.2836 12.0782C17.3472 12.3974 16.2856 12.7591 15.6441 13.6412C15.0083 14.5148 14.9902 15.6308 14.9742 16.6154C14.9641 17.2393 14.9548 17.8282 14.8049 18.2889C14.6661 18.7164 14.3376 19.1802 13.9896 19.671C13.41 20.4885 12.753 21.4152 12.753 22.5405C12.753 23.6657 13.41 24.5924 13.9896 25.4104C14.3376 25.9011 14.6665 26.3649 14.8049 26.7925C14.9543 27.2523 14.9641 27.8417 14.9742 28.4655C14.9902 29.4506 15.0078 30.5666 15.6436 31.4398C15.9129 31.8098 16.2578 32.0848 16.6345 32.3068L12 42.8102L19.0198 42.1832L23.2859 47.7926L27.9076 37.2861L32.3502 47.7647L36.6915 42.2128L43.702 42.934L39.175 32.2918ZM22.9075 44.5991L19.7727 40.4775L14.6099 40.9386L18.1342 32.9523C18.1841 32.9696 18.2346 32.9872 18.2836 33.004C18.869 33.2035 19.4221 33.3922 19.8055 33.6708C20.1799 33.9436 20.5253 34.4065 20.8905 34.8968C21.4856 35.6953 22.1603 36.6008 23.2121 36.9421C24.222 37.2702 25.2344 36.9598 26.2129 36.6592C26.2858 36.6366 26.357 36.6159 26.4291 36.5942L22.9075 44.5991ZM27.8912 34.6647C27.1467 34.6647 26.4282 34.8853 25.7341 35.0984C24.9643 35.3345 24.2365 35.5578 23.7166 35.3894C23.1591 35.2085 22.693 34.5834 22.1992 33.921C21.7769 33.3547 21.3406 32.7693 20.7658 32.3506C20.183 31.9266 19.4849 31.6887 18.8102 31.4588C18.0343 31.1944 17.3012 30.9446 16.9634 30.4799C16.6318 30.0241 16.6194 29.2543 16.6062 28.4394C16.5947 27.7232 16.5827 26.9817 16.3577 26.2889C16.1419 25.6244 15.7245 25.0359 15.3213 24.4669C14.8398 23.7877 14.3853 23.1466 14.3853 22.5409C14.3853 21.9352 14.8398 21.2945 15.3209 20.6154C15.7245 20.0464 16.1415 19.4579 16.3577 18.7934C16.5827 18.1005 16.5947 17.3595 16.6066 16.6428C16.6199 15.828 16.6323 15.0582 16.9643 14.6019C17.3021 14.1377 18.0347 13.8879 18.8107 13.6235C19.4854 13.3936 20.183 13.1557 20.7662 12.7317C21.341 12.313 21.7774 11.7276 22.1996 11.1612C22.693 10.4994 23.1591 9.87417 23.717 9.6929C24.237 9.52356 24.9647 9.74728 25.7345 9.98382C26.4286 10.1969 27.1471 10.4176 27.8917 10.4176C28.6367 10.4176 29.3547 10.1969 30.0493 9.98382C30.8191 9.74728 31.5468 9.524 32.0663 9.6929C32.6243 9.87373 33.0903 10.4989 33.5837 11.1612C34.006 11.7276 34.4424 12.3134 35.0176 12.7317C35.6003 13.1557 36.298 13.3936 36.9727 13.6235C37.7486 13.8879 38.4817 14.1377 38.8199 14.6024C39.1515 15.0582 39.1639 15.828 39.1772 16.6424C39.1887 17.3591 39.2006 18.1001 39.4257 18.7929C39.6414 19.4575 40.0588 20.0464 40.4625 20.6154C40.9435 21.2941 41.398 21.9352 41.398 22.5405C41.398 23.1458 40.9435 23.7873 40.4625 24.466C40.0588 25.0354 39.6414 25.6239 39.4261 26.2885C39.2006 26.9813 39.1887 27.7227 39.1772 28.4394C39.1639 29.2543 39.1515 30.0236 38.8199 30.4795C38.4821 30.9441 37.7491 31.1939 36.9731 31.4583C36.2984 31.6883 35.6007 31.9261 35.018 32.3501C34.4428 32.7688 34.0064 33.3542 33.5846 33.9206C33.0912 34.5825 32.6252 35.2077 32.0672 35.3885C31.5486 35.5583 30.8204 35.3341 30.0502 35.0976C29.3543 34.8853 28.6358 34.6647 27.8912 34.6647ZM35.9611 40.4969L32.7711 44.5765L29.3914 36.6052C29.4511 36.6234 29.509 36.6406 29.5691 36.6587C30.2505 36.8679 30.9477 37.0823 31.6498 37.0823C31.9558 37.0823 32.2626 37.0416 32.569 36.9421C33.6209 36.6008 34.2956 35.6953 34.8907 34.8968C35.2563 34.4065 35.6012 33.9431 35.9761 33.6708C36.359 33.3922 36.9121 33.2039 37.4975 33.004C37.5568 32.9837 37.6173 32.9629 37.6775 32.9421L41.1168 41.0279L35.9611 40.4969Z" fill="white"/>
<path d="M37.7041 22.5415C37.7041 17.1307 33.3017 12.7288 27.8913 12.7288C22.4809 12.7288 18.0781 17.1307 18.0781 22.5415C18.0781 27.9524 22.4805 32.3543 27.8909 32.3543C33.3013 32.3543 37.7041 27.9519 37.7041 22.5415ZM27.8913 30.7219C23.3807 30.7219 19.7109 27.0522 19.7109 22.5415C19.7109 18.0308 23.3807 14.3611 27.8913 14.3611C32.402 14.3611 36.0717 18.0308 36.0717 22.5415C36.0717 27.0522 32.402 30.7219 27.8913 30.7219Z" fill="white"/>
</svg>
