<svg width="55" height="55" viewBox="0 0 55 55" fill="none" xmlns="http://www.w3.org/2000/svg">
<path d="M27.5 55C42.7 55 55 42.7 55 27.5C55 12.3 42.7 0 27.5 0C12.3 0 0 12.3 0 27.5C0 42.7 12.3 55 27.5 55Z" fill="#CBAD6C"/>
<path d="M8.44092 32.0799V30.7199H11.6729V41.9999H10.1369V32.0799H8.44092Z" fill="white"/>
<path d="M13.1627 33.3759C13.1627 32.8213 13.312 32.3146 13.6107 31.8559C13.9093 31.3973 14.352 31.0346 14.9387 30.7679C15.5253 30.5013 16.224 30.3679 17.0347 30.3679C17.8453 30.3679 18.5387 30.5013 19.1147 30.7679C19.7013 31.0346 20.144 31.3973 20.4427 31.8559C20.7413 32.3146 20.8907 32.8213 20.8907 33.3759C20.8907 34.0053 20.72 34.5493 20.3787 35.0079C20.0373 35.4666 19.52 35.7919 18.8267 35.9839C19.5733 36.1866 20.1547 36.5386 20.5707 37.0399C20.9867 37.5413 21.1947 38.1599 21.1947 38.8959C21.1947 39.9626 20.816 40.7999 20.0587 41.4079C19.3013 42.0159 18.2933 42.3199 17.0347 42.3199C15.776 42.3199 14.768 42.0159 14.0107 41.4079C13.2533 40.7999 12.8747 39.9626 12.8747 38.8959C12.8747 38.1599 13.0773 37.5413 13.4827 37.0399C13.8987 36.5386 14.48 36.1866 15.2267 35.9839C14.5333 35.7919 14.016 35.4666 13.6747 35.0079C13.3333 34.5493 13.1627 34.0053 13.1627 33.3759ZM14.6027 33.5839C14.6027 34.2239 14.8213 34.7199 15.2587 35.0719C15.696 35.4133 16.288 35.5839 17.0347 35.5839C17.7813 35.5839 18.368 35.4133 18.7947 35.0719C19.232 34.7199 19.4507 34.2239 19.4507 33.5839C19.4507 32.9439 19.232 32.4533 18.7947 32.1119C18.3573 31.7599 17.7707 31.5839 17.0347 31.5839C16.2987 31.5839 15.7067 31.7599 15.2587 32.1119C14.8213 32.4533 14.6027 32.9439 14.6027 33.5839ZM14.2987 38.8159C14.2987 39.5413 14.544 40.1066 15.0347 40.5119C15.5253 40.9066 16.192 41.1039 17.0347 41.1039C17.8667 41.1039 18.528 40.9013 19.0187 40.4959C19.5093 40.0906 19.7547 39.5306 19.7547 38.8159C19.7547 38.0906 19.4987 37.5413 18.9867 37.1679C18.4747 36.7946 17.824 36.6079 17.0347 36.6079C16.2347 36.6079 15.5787 36.7946 15.0667 37.1679C14.5547 37.5413 14.2987 38.0906 14.2987 38.8159Z" fill="white"/>
<path d="M27.3867 35.5199V36.7519H20.9867V35.5199H27.3867Z" fill="white"/>
<path d="M33.07 30.4159C33.7954 30.4159 34.4194 30.5439 34.942 30.7999C35.4647 31.0559 35.8594 31.4079 36.126 31.8559C36.3927 32.3039 36.526 32.8106 36.526 33.3759C36.526 34.0799 36.318 34.6719 35.902 35.1519C35.4967 35.6319 34.8994 35.9199 34.11 36.0159V36.1119C34.9314 36.3253 35.5714 36.6559 36.03 37.1039C36.4994 37.5519 36.734 38.1706 36.734 38.9599C36.734 39.8879 36.4247 40.6453 35.806 41.2319C35.1874 41.8186 34.2967 42.1119 33.134 42.1119C31.9714 42.1119 31.0274 41.8133 30.302 41.2159C29.5874 40.6079 29.166 39.7226 29.038 38.5599H30.478C30.574 39.2639 30.8407 39.8239 31.278 40.2399C31.726 40.6559 32.3287 40.8639 33.086 40.8639C33.8007 40.8639 34.35 40.6826 34.734 40.3199C35.118 39.9466 35.31 39.4666 35.31 38.8799C35.31 38.1759 35.0327 37.6426 34.478 37.2799C33.934 36.9066 33.1554 36.7199 32.142 36.7199H31.758V35.5039H32.142C34.1047 35.5039 35.086 34.8479 35.086 33.5359C35.086 32.9599 34.9047 32.5013 34.542 32.1599C34.1794 31.8186 33.678 31.6479 33.038 31.6479C32.398 31.6479 31.8594 31.8346 31.422 32.2079C30.9847 32.5706 30.7287 33.1093 30.654 33.8239H29.23C29.3047 32.7573 29.6727 31.9253 30.334 31.3279C31.006 30.7199 31.918 30.4159 33.07 30.4159Z" fill="white"/>
<path d="M45.4199 31.8719H39.6279V35.6479C39.8946 35.2853 40.2786 34.9973 40.7799 34.7839C41.2813 34.5706 41.8306 34.4639 42.4279 34.4639C43.2279 34.4639 43.8893 34.6346 44.4119 34.9759C44.9453 35.3066 45.3346 35.7493 45.5799 36.3039C45.8359 36.8479 45.9639 37.4559 45.9639 38.1279C45.9639 39.2906 45.6386 40.2399 44.9879 40.9759C44.3373 41.7119 43.3826 42.0799 42.1239 42.0799C40.9933 42.0799 40.0706 41.7759 39.3559 41.1679C38.6413 40.5493 38.2413 39.7226 38.1559 38.6879H39.5959C39.7133 39.3493 39.9853 39.8666 40.4119 40.2399C40.8493 40.6026 41.3986 40.7839 42.0599 40.7839C42.8813 40.7839 43.4999 40.5386 43.9159 40.0479C44.3319 39.5573 44.5399 38.9119 44.5399 38.1119C44.5399 37.3333 44.3266 36.7253 43.8999 36.2879C43.4733 35.8506 42.8706 35.6319 42.0919 35.6319C41.5373 35.6319 41.0519 35.7546 40.6359 35.9999C40.2199 36.2346 39.9053 36.5546 39.6919 36.9599H38.2839V30.5759H45.4199V31.8719Z" fill="white"/>
<circle cx="27.706" cy="12.3529" r="3.60294" stroke="white" stroke-width="1.5"/>
<path d="M20.2155 21.6352C21.3182 18.5631 24.2566 16.3677 27.7059 16.3677C31.1551 16.3677 34.0935 18.5631 35.1963 21.6352C35.3731 22.1276 35.2519 22.5781 34.9302 22.9363C34.5944 23.3103 34.0386 23.5736 33.4118 23.5736H22C21.3732 23.5736 20.8174 23.3103 20.4815 22.9363C20.1598 22.5781 20.0387 22.1276 20.2155 21.6352Z" stroke="white" stroke-width="1.5"/>
</svg>
